<svg width="230" height="36" viewBox="0 0 230 36" fill="none" xmlns="http://www.w3.org/2000/svg">
<path d="M25.5563 16.2459C27.961 17.8949 30.3658 19.4829 32.7705 21.1319C34.1271 20.6433 35.4219 20.0936 36.7168 19.605C34.497 18.0781 32.2773 16.6124 30.0575 15.0855C28.516 15.513 27.0361 15.8795 25.5563 16.2459Z" fill="white"/>
<path d="M9.77121 1.40472C7.79808 1.46579 5.82495 1.52687 3.85181 1.58794C6.25657 3.23696 8.66133 4.82491 11.0661 6.47393C12.8542 6.2907 14.6424 6.10748 16.4305 5.92426C14.2108 4.39739 11.991 2.87052 9.77121 1.40472Z" fill="white"/>
<path d="M23.5215 10.6881C21.8567 10.9935 20.2535 11.2378 18.5887 11.5431C20.7468 13.0089 22.9049 14.4747 25.063 15.9405C26.5428 15.5741 28.0227 15.1466 29.5642 14.7801C27.5294 13.3754 25.4946 12.0317 23.5215 10.6881Z" fill="white"/>
<path d="M16.9238 6.22963C15.1357 6.41286 13.3475 6.59608 11.5594 6.7793C13.7175 8.2451 15.8756 9.7109 18.0337 11.1156C19.6985 10.8102 21.3017 10.5659 22.9665 10.2606C20.9317 8.91692 18.897 7.57328 16.9238 6.22963Z" fill="white"/>
<path d="M20.9317 5.43566C20.3151 5.00813 19.7602 4.64169 19.2669 4.27524C17.8487 3.29804 16.4922 2.38192 15.074 1.40472C14.9507 1.34364 14.6424 1.2215 14.5191 1.2215C13.2242 1.2215 11.991 1.28257 10.6961 1.34364C12.9159 2.80944 15.074 4.27524 17.2938 5.80211C18.4037 5.67996 19.6369 5.55781 20.9317 5.43566Z" fill="white"/>
<path d="M39.6149 18.0781C37.765 16.8567 35.9769 15.6352 34.1271 14.3526C34.0038 14.2915 33.8804 14.2304 33.7571 14.1083C32.7089 14.3526 31.6607 14.658 30.6741 14.9023C32.8939 16.3681 35.052 17.8338 37.2718 19.3607C38.0733 19.0553 38.8749 18.75 39.6765 18.4446C39.9232 18.3224 39.8615 18.2614 39.6149 18.0781Z" fill="white"/>
<path d="M40.5398 18.0781C41.403 17.7728 42.2046 17.4063 43.0678 17.1009C43.3145 16.9788 43.3761 16.9177 43.0678 16.7345C41.3413 15.5741 39.6765 14.4747 38.0117 13.3143C37.8884 13.2532 37.765 13.1922 37.6417 13.07C36.5318 13.3754 35.4836 13.6197 34.4354 13.9251C36.4702 15.3298 38.4433 16.7345 40.5398 18.0781Z" fill="white"/>
<path d="M19.6369 1.09934C18.2803 1.16042 16.9238 1.16042 15.5673 1.2215C17.6021 2.62622 19.6369 3.96986 21.6717 5.37458C22.9665 5.25243 24.1997 5.13028 25.5563 4.94706C23.7065 3.66449 21.8567 2.44299 20.0068 1.2215C19.8835 1.16042 19.6985 1.09934 19.6369 1.09934Z" fill="white"/>
<path d="M32.8322 13.9251C33.2022 13.864 33.2022 13.7418 32.8939 13.5586C31.229 12.4593 29.5642 11.2988 27.8994 10.1995C27.7761 10.1384 27.6527 10.0773 27.5294 9.95519C26.3579 10.1384 25.248 10.3827 24.1381 10.5659C26.1112 11.9096 28.0844 13.2532 30.1192 14.5969C31.0441 14.3526 31.9073 14.1083 32.8322 13.9251Z" fill="white"/>
<path d="M17.7254 6.16856C19.7602 7.5122 21.6717 8.85585 23.6448 10.1995C24.7547 10.0163 25.8646 9.83305 27.0361 9.58875C25.1247 8.30618 23.2748 7.0236 21.3634 5.74103C20.1302 5.92426 18.9586 6.04641 17.7254 6.16856Z" fill="white"/>
<path d="M33.8804 13.6197C34.9903 13.3143 36.0385 13.07 37.0868 12.7646C35.2986 11.5431 33.5721 10.3827 31.8456 9.2223C30.6741 9.40552 29.5025 9.64982 28.331 9.83304C30.1808 11.1156 32.0306 12.3371 33.8804 13.6197Z" fill="white"/>
<path d="M27.7761 9.4666C28.9476 9.28337 30.1191 9.03907 31.2907 8.85585C29.5642 7.69543 27.7761 6.47393 26.0496 5.31351C24.7547 5.43566 23.5215 5.55781 22.2266 5.74103C24.0764 6.96253 25.9262 8.18403 27.7761 9.4666Z" fill="white"/>
<path d="M40.6631 11.3599C42.3279 12.4593 43.9927 13.6197 45.5959 14.719C46.5208 14.3526 47.3841 14.0472 48.309 13.6808C46.7675 12.6425 45.2259 11.6042 43.7461 10.5659C42.7595 10.8102 41.7113 11.0545 40.6631 11.3599Z" fill="white"/>
<path d="M29.8108 1.09934C28.4543 1.16042 27.0978 1.2215 25.7413 1.2215C27.4061 2.38192 29.0709 3.48126 30.6741 4.58061C31.9073 4.45846 33.1405 4.33631 34.3737 4.21416C32.8322 3.11481 31.3524 2.13762 29.8108 1.09934Z" fill="white"/>
<path d="M54.1667 11.7874L37.3951 0.549673C37.0868 0.366449 36.8401 0.183224 36.8401 0.183224H36.7785C36.7785 0.183224 36.4702 0.183224 36.1002 0.183224L24.3847 0.488598C24.0148 0.488598 23.5215 0.488598 23.3365 0.488598C23.1515 0.488598 23.0899 0.610747 23.2748 0.732897C23.4598 0.855047 23.8298 1.09935 24.1381 1.34365L34.3737 8.30617C34.3737 8.91692 34.3737 9.40552 34.3737 9.64982L20.8084 0.610748C20.3768 0.305374 20.0068 0.0610739 19.9452 0.0610739C19.8835 0.0610739 19.8835 0 19.8219 0C19.7602 0 19.3286 0 18.8353 0L1.81702 0.488598C1.32374 0.488598 0.583812 0.549673 0.27551 0.549673C-0.0327924 0.549673 -0.0944527 0.732898 0.152189 0.916122C0.398831 1.09935 0.953774 1.4658 1.3854 1.77117L14.5807 10.8102C14.5807 16.2459 14.5807 26.934 14.5807 33.4079C12.2376 34.5073 10.6961 35.2402 10.6345 35.3012C10.0795 35.7898 13.9025 36.0952 14.5807 35.9731C15.3207 35.7288 44.7943 20.3379 50.0971 17.2842H49.6038C49.6038 17.2842 45.9042 19.0553 41.588 21.254V19.3607L45.226 17.7117C45.7192 17.5285 45.7192 17.1009 45.2876 16.7956L41.588 14.2915V13.07L45.041 15.513C45.3493 15.6962 45.5343 15.8795 45.5959 15.9405C45.6576 15.9405 45.9042 15.8795 46.2125 15.7573L54.1667 12.3982C54.475 12.215 54.475 11.9707 54.1667 11.7874ZM21.7333 30.1099C20.0068 30.9039 18.157 31.6368 16.9238 32.3086V12.276L21.6717 15.5741C21.7333 21.1319 21.7333 24.5521 21.7333 30.1099ZM24.3231 29.0716V17.1009L31.8456 22.4145C32.2773 22.7198 32.5856 22.9641 32.5856 23.0252C32.6472 23.0863 33.0172 22.9031 33.5105 22.7198L34.2504 22.3534L34.4354 24.4299C31.0441 25.9568 27.4061 27.5447 24.3231 29.0716ZM39.9848 21.9259C38.6899 22.5366 37.2718 23.1474 36.0386 23.8192V21.8037L40.0465 20.0325L39.9848 21.9259ZM44.0544 16.6734C44.486 16.9788 44.4244 17.3452 43.9927 17.5285L33.5721 21.8037C33.0789 21.9869 32.3389 21.9259 31.9073 21.6205L2.86525 1.77117C2.43362 1.4658 2.49528 1.2215 3.05023 1.2215L18.7736 0.549673C19.2669 0.549673 20.0685 0.732897 20.5001 1.03827L44.0544 16.6734ZM34.3121 9.64982C34.3121 9.34445 34.3121 8.978 34.3121 8.61155C34.3121 8.85585 34.3121 9.2223 34.3121 9.64982ZM36.0386 10.5659V9.2223L40.2931 12.1539L40.1698 13.3754L36.0386 10.5659ZM53.4268 12.215L46.2125 15.1466C45.9042 15.2687 45.3493 15.2076 45.1026 15.0244L25.0013 1.34365C24.693 1.16042 24.7547 0.977196 25.1247 0.977196L36.0386 0.488598C36.4085 0.488598 36.9635 0.610748 37.2101 0.793972L53.4884 11.6042C53.7967 11.8485 53.7351 12.0928 53.4268 12.215Z" fill="white"/>
<path d="M39.3066 7.5122C38.135 7.69543 37.0251 7.93973 35.9152 8.12295C37.3951 9.16122 38.8749 10.1384 40.3548 11.1156C41.403 10.8713 42.3896 10.5659 43.4378 10.3216C42.0196 9.34445 40.6631 8.42832 39.3066 7.5122Z" fill="white"/>
<path d="M34.7437 4.39739C33.5105 4.51954 32.2773 4.64169 31.0441 4.76383C32.5239 5.80211 34.0038 6.7793 35.4836 7.7565C36.6552 7.57328 37.765 7.39005 38.8749 7.14575C37.5184 6.29071 36.1002 5.37458 34.7437 4.39739Z" fill="white"/>
<path d="M37.5184 3.84771C37.0868 3.54234 36.7168 3.29804 36.3468 3.05374C35.3603 2.38192 34.4354 1.77117 33.4488 1.09935C33.3871 1.03827 33.1405 0.977195 33.0172 0.977195C32.1539 0.977195 31.2907 1.03827 30.3658 1.03827C31.9073 2.07654 33.3872 3.05374 34.9287 4.09201C35.7919 4.03094 36.5935 3.96986 37.5184 3.84771Z" fill="white"/>
<path d="M50.4054 12.5814C49.1106 11.7264 47.8773 10.8713 46.5825 10.0163C46.5208 9.95519 46.3975 9.89412 46.3358 9.83304C45.5959 10.0163 44.9176 10.1995 44.1777 10.3827C45.7192 11.421 47.1991 12.3982 48.7406 13.4365C49.2955 13.1922 49.8505 13.0089 50.4054 12.8257C50.5904 12.7646 50.5904 12.7036 50.4054 12.5814Z" fill="white"/>
<path d="M52.7485 11.7264C51.577 10.9324 50.4054 10.1384 49.2339 9.34445C49.1722 9.28337 49.0489 9.2223 48.9872 9.16122C48.2473 9.34445 47.5074 9.52767 46.7675 9.71089C48.1856 10.6881 49.6038 11.6042 51.022 12.5814C51.6386 12.3371 52.1936 12.1539 52.7485 11.9096C52.9335 11.9096 52.9335 11.8485 52.7485 11.7264Z" fill="white"/>
<path d="M40.6631 3.54234C39.3682 2.68729 38.135 1.83224 36.8401 0.977196C36.7785 0.916121 36.6552 0.916122 36.5935 0.916122C35.6686 0.916122 34.7437 0.977196 33.7571 1.03827C35.1753 2.01547 36.5318 2.93159 38.0117 3.90879C38.8749 3.72556 39.7998 3.60341 40.6631 3.54234Z" fill="white"/>
<path d="M45.7192 9.71089C45.9659 9.64982 45.9659 9.58875 45.7809 9.4666C44.6094 8.67262 43.4995 7.93973 42.3279 7.14575C42.2662 7.08468 42.1429 7.0236 42.0813 6.96253C41.2797 7.08468 40.5398 7.20683 39.7382 7.39005C41.0947 8.30617 42.4512 9.2223 43.8694 10.1995C44.486 10.0163 45.1026 9.83304 45.7192 9.71089Z" fill="white"/>
<path d="M35.2986 4.39739C36.6552 5.31351 38.0117 6.22963 39.4299 7.14575C40.2315 7.0236 40.9714 6.90145 41.773 6.71823C40.4781 5.86318 39.1832 4.94706 37.8884 4.09201C36.9635 4.21416 36.1619 4.27524 35.2986 4.39739Z" fill="white"/>
<path d="M46.4592 9.52767C47.1991 9.34445 47.939 9.16122 48.6789 8.978C47.4457 8.12295 46.2742 7.32898 45.041 6.53501C44.2394 6.65715 43.4378 6.84038 42.5746 6.96253C43.8694 7.7565 45.1643 8.61155 46.4592 9.52767Z" fill="white"/>
<path d="M42.2046 6.65715C43.0062 6.535 43.8078 6.35178 44.6094 6.22963C43.3761 5.43566 42.2046 4.58061 40.9714 3.78664C40.1081 3.84771 39.2449 3.96986 38.32 4.09201C39.6765 4.94706 40.9097 5.80211 42.2046 6.65715Z" fill="white"/>
<path d="M73.8001 5.46207C73.9668 5.7269 73.9835 6.02483 73.8501 6.35586C73.7501 6.65379 73.5334 6.86897 73.2 7.00138C72.8 7.13379 72.3333 7.2 71.7999 7.2C71.2998 7.2 70.7331 7.21655 70.0997 7.24966C69.733 7.24966 69.3829 7.31586 69.0496 7.44828C68.7162 7.58069 68.4162 7.66345 68.1495 7.69655C67.5161 7.72966 67.016 7.6469 66.6493 7.44828C66.2826 7.24966 65.8326 7.26621 65.2992 7.49793C65.1658 7.59724 64.9991 7.74621 64.7991 7.94483C64.6324 8.11035 64.4657 8.25931 64.2991 8.39172C63.8657 8.65655 63.5823 9.00414 63.449 9.43448C63.2823 9.99724 63.3989 10.4441 63.799 10.7752C64.0657 11.0731 64.3324 11.3545 64.5991 11.6193C64.8991 11.8841 65.1658 12.1655 65.3992 12.4634C65.5992 12.7283 65.8326 12.8772 66.0992 12.9103C66.2326 12.9103 66.4159 12.9931 66.6493 13.1586C67.1494 13.589 67.6828 14.0193 68.2495 14.4497C68.8162 14.88 69.2663 15.3435 69.5996 15.84C69.6663 15.9062 69.733 16.0055 69.7997 16.1379C69.8997 16.2372 69.9997 16.32 70.0997 16.3862C70.7998 17.0152 71.2665 17.8593 71.4998 18.9186C71.7665 19.9779 71.7665 21.0538 71.4998 22.1462C71.2332 23.2055 70.6664 24.1159 69.7997 24.8772C69.4663 25.2083 69.1163 25.5559 68.7495 25.92C68.3828 26.251 67.9328 26.4993 67.3994 26.6648C67.3661 26.6979 67.2994 26.6979 67.1994 26.6648C67.0994 26.6317 67.016 26.6152 66.9493 26.6152C66.2826 26.7476 65.6325 26.9297 64.9991 27.1614C64.3657 27.3931 63.6323 27.4924 62.7989 27.4593C62.4322 27.4593 62.0655 27.4262 61.6988 27.36C61.3321 27.2938 60.9487 27.2276 60.5486 27.1614C59.9819 27.1283 59.4985 26.9131 59.0985 26.5159C59.0651 26.4497 59.0318 26.4166 58.9985 26.4166C58.9651 26.4166 58.9318 26.4 58.8984 26.3669C58.6651 26.2014 58.4651 26.0193 58.2984 25.8207C58.165 25.6221 58.0484 25.4069 57.9483 25.1752C57.8817 24.9103 57.7817 24.6621 57.6483 24.4303C57.515 24.1655 57.4316 23.8841 57.3983 23.5862C57.3649 23.2552 57.4816 23.0235 57.7483 22.891C58.0484 22.7586 58.315 22.7752 58.5484 22.9407C58.9151 23.2386 59.2985 23.3876 59.6985 23.3876C61.0654 23.5862 62.2822 23.5366 63.3489 23.2386C64.4491 22.9076 65.4492 22.3945 66.3493 21.6993C66.6493 21.4676 66.8993 21.1366 67.0994 20.7062C67.166 20.5738 67.2327 20.4745 67.2994 20.4083C67.3661 20.309 67.4161 20.2097 67.4494 20.1103C67.6828 19.8124 67.8328 19.4979 67.8994 19.1669C68.0661 18.5379 67.9161 17.9752 67.4494 17.4786C66.816 16.8166 66.0826 16.2538 65.2492 15.7903C64.4157 15.3269 63.5656 14.8469 62.6989 14.3503C62.3655 14.1517 62.0655 13.8538 61.7988 13.4566C61.5987 13.1917 61.3987 12.9269 61.1987 12.6621C61.032 12.3641 60.832 12.0662 60.5986 11.7683C60.2653 11.4372 60.0486 11.0566 59.9486 10.6262C59.7485 9.66621 59.5985 8.75586 59.4985 7.89517C59.4318 7.03448 59.6152 6.22345 60.0486 5.46207C60.2486 4.99862 60.6153 4.51862 61.1487 4.02207C61.7154 3.49241 62.2155 3.12828 62.6489 2.92965C63.0822 2.66483 63.7823 2.46621 64.7491 2.33379C65.7492 2.16828 66.7827 2.08552 67.8494 2.08552C68.9496 2.08552 69.8497 2.23448 70.5497 2.53241C70.8164 2.66483 71.0831 2.81379 71.3498 2.97931C71.6165 3.14483 71.8666 3.29379 72.0999 3.42621C72.6333 3.65793 73.0667 4.08828 73.4001 4.71724C73.4334 4.84965 73.4834 4.98207 73.5501 5.11448C73.6501 5.21379 73.7334 5.32965 73.8001 5.46207Z" fill="white"/>
<path d="M92.612 18.9186C92.612 19.2497 92.512 19.5641 92.3119 19.8621C92.1119 20.16 91.9119 20.5241 91.7119 20.9545C91.6785 21.0538 91.6785 21.1697 91.7119 21.3021C91.7785 21.4014 91.7785 21.5007 91.7119 21.6C91.3118 22.3945 90.9118 22.9903 90.5117 23.3876C90.145 23.7848 89.745 24.1986 89.3116 24.629C88.9115 24.96 88.5448 25.1917 88.2115 25.3241C87.8114 25.4566 87.4114 25.6055 87.0113 25.771C86.6113 25.9366 86.2279 26.1352 85.8612 26.3669C85.6612 26.5324 85.3945 26.6648 85.0611 26.7641C84.6277 26.8966 83.911 27.029 82.9109 27.1614C81.9441 27.2607 80.8273 27.0786 79.5605 26.6152C79.3938 26.5159 79.2271 26.4331 79.0605 26.3669C78.9271 26.2676 78.7771 26.1517 78.6104 26.0193C78.5104 25.92 78.4104 25.8207 78.3104 25.7214C78.2104 25.6221 78.077 25.5559 77.9103 25.5228C77.4769 25.3241 77.1269 25.0262 76.8602 24.629C76.7269 24.4635 76.5768 24.2814 76.4102 24.0828C76.2435 23.8841 76.0768 23.7186 75.9101 23.5862C75.7768 23.4207 75.6601 23.2552 75.5601 23.0897C75.4601 22.891 75.3767 22.6759 75.31 22.4441C75.01 21.2524 74.96 20.0441 75.16 18.8193C75.36 17.5614 75.7934 16.4193 76.4602 15.3931C77.1602 14.3338 78.0603 13.5062 79.1605 12.9103C80.1939 12.3476 81.3107 12.1324 82.5108 12.2648C83.711 12.3972 84.7778 12.8441 85.7112 13.6055C86.1779 13.9366 86.4779 14.4331 86.6113 15.0952C86.678 15.3269 86.5946 15.5255 86.3613 15.691C86.1612 15.8566 85.9446 15.8731 85.7112 15.7407C85.4112 15.5752 85.0778 15.4097 84.7111 15.2441C84.3777 15.0786 84.0777 14.9793 83.811 14.9462C83.711 14.9131 83.4109 14.9462 82.9109 15.0455C82.4442 15.1448 81.9108 15.3434 81.3107 15.6414C80.744 15.9393 80.2439 16.4193 79.8105 17.0814C79.5772 17.3793 79.2771 17.8097 78.9104 18.3724C78.5771 18.9021 78.4271 19.3821 78.4604 19.8124C78.5271 20.1103 78.6104 20.4248 78.7104 20.7559C78.8438 21.0538 78.9771 21.3352 79.1105 21.6C79.5105 22.4276 80.1439 22.9241 81.0107 23.0897C81.8774 23.2552 82.7609 23.2552 83.661 23.0897C84.5944 22.9241 85.3445 22.7421 85.9112 22.5435C86.3779 22.3779 86.7613 22.1628 87.0613 21.8979C87.3947 21.6331 87.6781 21.4014 87.9114 21.2028C88.6449 20.6731 89.0616 20.0276 89.1616 19.2662C89.2616 18.5048 89.1616 17.6607 88.8615 16.7338C88.7949 16.5352 88.8449 16.3531 89.0116 16.1876C89.2116 16.0221 89.4283 16.0055 89.6616 16.1379C89.8283 16.2372 89.995 16.3366 90.1617 16.4359C90.3284 16.5021 90.4784 16.5848 90.6117 16.6841C90.7784 16.7835 90.9451 16.8828 91.1118 16.9821C91.2785 17.0814 91.4285 17.2138 91.5618 17.3793C91.8285 17.611 92.0786 17.8593 92.3119 18.1241C92.5453 18.389 92.6453 18.6538 92.612 18.9186Z" fill="white"/>
<path d="M101.74 6.40552C101.474 7.76276 101.124 9.35172 100.69 11.1724C100.257 12.9931 99.8234 14.8469 99.3901 16.7338C98.9567 18.6207 98.5566 20.4083 98.1899 22.0966C97.8566 23.7517 97.6232 25.109 97.4898 26.1683C97.4565 26.6317 97.2732 27.0952 96.9398 27.5586C96.6064 28.0552 96.173 28.2207 95.6396 28.0552C95.5063 28.0221 95.3896 27.9724 95.2896 27.9062C95.1896 27.8731 95.0729 27.84 94.9396 27.8069C94.3062 27.5752 93.8894 27.1117 93.6894 26.4166C93.6561 26.3503 93.6227 26.2676 93.5894 26.1683C93.5894 26.069 93.5561 25.9697 93.4894 25.8703C93.256 25.3407 93.2227 24.7448 93.3894 24.0828C93.7228 22.6924 94.1061 21.0207 94.5395 19.0676C94.9729 17.1145 95.423 15.0952 95.8897 13.0097C96.3564 10.891 96.8064 8.87172 97.2398 6.95172C97.7065 5.03172 98.1233 3.3931 98.49 2.03586C98.59 1.73793 98.7567 1.45655 98.99 1.19172C99.2234 0.926895 99.5067 0.777929 99.8401 0.744826C101.007 0.546206 101.774 0.910344 102.14 1.83724C102.54 2.73103 102.407 4.25379 101.74 6.40552Z" fill="white"/>
<path d="M122.2 25.1255C122.167 25.4566 122.034 25.7379 121.8 25.9697C121.567 26.2014 121.267 26.3007 120.9 26.2676C120.167 26.2014 119.45 25.9862 118.75 25.6221C118.083 25.2579 117.533 24.8607 117.1 24.4303C116.966 24.2648 116.8 24.1986 116.6 24.2317C116.433 24.2648 116.3 24.3807 116.2 24.5793C116.166 24.7448 116 24.9103 115.7 25.0759C115.566 25.1752 115.433 25.291 115.3 25.4235C115.2 25.5228 115.083 25.6386 114.95 25.771C114.716 26.0359 114.45 26.2676 114.15 26.4662C113.883 26.6648 113.633 26.9297 113.399 27.2607C112.966 27.8566 112.383 28.1876 111.649 28.2538C111.083 28.3531 110.499 28.3862 109.899 28.3531C109.299 28.32 108.732 28.2372 108.199 28.1048C107.732 28.0055 107.299 27.7904 106.899 27.4593C106.832 27.3931 106.765 27.3269 106.699 27.2607C106.632 27.1945 106.549 27.1448 106.449 27.1117C106.015 26.8469 105.665 26.4993 105.399 26.069C104.965 25.3076 104.582 24.4966 104.248 23.6359C103.915 22.7421 103.865 21.7986 104.098 20.8055C104.265 20.0441 104.548 19.2331 104.948 18.3724C105.382 17.4786 105.782 16.7338 106.149 16.1379C106.915 14.9462 107.932 14.0193 109.199 13.3572C110.466 12.6621 111.849 12.4469 113.349 12.7117C114.616 12.9434 115.716 13.3738 116.65 14.0028C117.617 14.6317 118.45 15.4593 119.15 16.4855C119.317 16.7172 119.35 16.949 119.25 17.1807C119.183 17.4124 119.017 17.5614 118.75 17.6276C118.217 17.7269 117.767 17.6276 117.4 17.3297C116.566 16.5683 115.566 16.1876 114.4 16.1876C113.233 16.1876 112.166 16.4524 111.199 16.9821C111.066 17.0483 110.949 17.1145 110.849 17.1807C110.782 17.2469 110.716 17.3297 110.649 17.429C110.249 17.7931 109.832 18.24 109.399 18.7697C108.999 19.2993 108.666 19.9945 108.399 20.8552C108.266 21.2855 108.099 21.7655 107.899 22.2952C107.732 22.8248 107.665 23.3214 107.699 23.7848C107.699 24.1159 107.832 24.3972 108.099 24.629C108.366 24.8276 108.666 24.9103 108.999 24.8772C110.132 24.7117 111.066 24.3476 111.799 23.7848C112.533 23.189 113.199 22.5435 113.799 21.8483C114.433 21.1531 115.116 20.5241 115.85 19.9614C116.15 19.7628 116.483 19.68 116.85 19.7131C117.217 19.7462 117.517 19.8952 117.75 20.16C118.083 20.4248 118.333 20.8055 118.5 21.3021C118.667 21.7986 118.817 22.3117 118.95 22.8414C119.05 23.1724 119.233 23.4538 119.5 23.6855C119.8 23.8841 120.134 23.9669 120.5 23.9338H121C121.367 23.9007 121.667 24 121.9 24.2317C122.134 24.4635 122.234 24.7614 122.2 25.1255Z" fill="white"/>
<path d="M139.77 16.4855C139.937 16.8166 139.903 17.131 139.67 17.429C139.47 17.7269 139.203 17.8593 138.87 17.8262C138.503 17.76 138.103 17.6938 137.67 17.6276C137.27 17.5283 136.936 17.5283 136.67 17.6276C136.636 17.6607 136.403 17.8428 135.97 18.1738C135.569 18.5048 135.203 18.7531 134.869 18.9186C134.169 19.2828 133.553 19.7628 133.019 20.3586C132.519 20.9214 132.002 21.451 131.469 21.9476C131.336 22.1131 131.186 22.2786 131.019 22.4441C130.886 22.5766 130.752 22.7255 130.619 22.891C130.486 23.1228 130.319 23.3214 130.119 23.4869C129.919 23.6193 129.719 23.7683 129.519 23.9338C129.352 24.0662 129.185 24.2317 129.019 24.4303C128.885 24.5959 128.769 24.7614 128.669 24.9269C128.469 25.291 128.235 25.6221 127.969 25.92C127.735 26.1848 127.485 26.4662 127.219 26.7641C127.052 26.9959 126.802 27.1448 126.468 27.211C126.168 27.2772 125.885 27.2607 125.618 27.1614C125.418 27.0621 125.202 27.0124 124.968 27.0124C124.502 26.9131 124.235 26.4331 124.168 25.5724C124.135 24.6786 124.218 23.5862 124.418 22.2952C124.618 20.971 124.852 19.6138 125.118 18.2235C125.418 16.8 125.685 15.509 125.918 14.3503C125.985 13.9862 125.985 13.6552 125.918 13.3572C125.852 13.0593 125.918 12.7945 126.118 12.5628C126.318 12.331 126.568 12.2317 126.869 12.2648C127.469 12.331 127.985 12.4966 128.419 12.7614C128.852 13.0262 129.152 13.5062 129.319 14.2014C129.519 14.8966 129.535 15.9559 129.369 17.3793C129.335 17.611 129.419 17.7766 129.619 17.8759C129.852 17.9421 130.036 17.8759 130.169 17.6772C131.202 16.3862 132.202 15.509 133.169 15.0455C134.136 14.5821 135.036 14.2841 135.87 14.1517C136.436 14.0193 137.036 14.1186 137.67 14.4497C138.136 14.6814 138.553 14.9793 138.92 15.3435C139.32 15.6745 139.603 16.0552 139.77 16.4855Z" fill="white"/>
<path d="M158.253 5.46207C158.42 5.7269 158.436 6.02483 158.303 6.35586C158.203 6.65379 157.986 6.86897 157.653 7.00138C157.253 7.13379 156.786 7.2 156.253 7.2C155.753 7.2 155.186 7.21655 154.552 7.24966C154.186 7.24966 153.836 7.31586 153.502 7.44828C153.169 7.58069 152.869 7.66345 152.602 7.69655C151.969 7.72966 151.469 7.6469 151.102 7.44828C150.735 7.24966 150.285 7.26621 149.752 7.49793C149.619 7.59724 149.452 7.74621 149.252 7.94483C149.085 8.11035 148.918 8.25931 148.752 8.39172C148.318 8.65655 148.035 9.00414 147.902 9.43448C147.735 9.99724 147.852 10.4441 148.252 10.7752C148.518 11.0731 148.785 11.3545 149.052 11.6193C149.352 11.8841 149.619 12.1655 149.852 12.4634C150.052 12.7283 150.285 12.8772 150.552 12.9103C150.685 12.9103 150.869 12.9931 151.102 13.1586C151.602 13.589 152.136 14.0193 152.702 14.4497C153.269 14.88 153.719 15.3435 154.052 15.84C154.119 15.9062 154.186 16.0055 154.252 16.1379C154.352 16.2372 154.452 16.32 154.552 16.3862C155.253 17.0152 155.719 17.8593 155.953 18.9186C156.219 19.9779 156.219 21.0538 155.953 22.1462C155.686 23.2055 155.119 24.1159 154.252 24.8772C153.919 25.2083 153.569 25.5559 153.202 25.92C152.836 26.251 152.386 26.4993 151.852 26.6648C151.819 26.6979 151.752 26.6979 151.652 26.6648C151.552 26.6317 151.469 26.6152 151.402 26.6152C150.735 26.7476 150.085 26.9297 149.452 27.1614C148.818 27.3931 148.085 27.4924 147.252 27.4593C146.885 27.4593 146.518 27.4262 146.152 27.36C145.785 27.2938 145.401 27.2276 145.001 27.1614C144.435 27.1283 143.951 26.9131 143.551 26.5159C143.518 26.4497 143.485 26.4166 143.451 26.4166C143.418 26.4166 143.385 26.4 143.351 26.3669C143.118 26.2014 142.918 26.0193 142.751 25.8207C142.618 25.6221 142.501 25.4069 142.401 25.1752C142.334 24.9103 142.234 24.6621 142.101 24.4303C141.968 24.1655 141.884 23.8841 141.851 23.5862C141.818 23.2552 141.934 23.0235 142.201 22.891C142.501 22.7586 142.768 22.7752 143.001 22.9407C143.368 23.2386 143.751 23.3876 144.151 23.3876C145.518 23.5862 146.735 23.5366 147.802 23.2386C148.902 22.9076 149.902 22.3945 150.802 21.6993C151.102 21.4676 151.352 21.1366 151.552 20.7062C151.619 20.5738 151.685 20.4745 151.752 20.4083C151.819 20.309 151.869 20.2097 151.902 20.1103C152.136 19.8124 152.286 19.4979 152.352 19.1669C152.519 18.5379 152.369 17.9752 151.902 17.4786C151.269 16.8166 150.535 16.2538 149.702 15.7903C148.868 15.3269 148.018 14.8469 147.152 14.3503C146.818 14.1517 146.518 13.8538 146.252 13.4566C146.051 13.1917 145.851 12.9269 145.651 12.6621C145.485 12.3641 145.285 12.0662 145.051 11.7683C144.718 11.4372 144.501 11.0566 144.401 10.6262C144.201 9.66621 144.051 8.75586 143.951 7.89517C143.885 7.03448 144.068 6.22345 144.501 5.46207C144.701 4.99862 145.068 4.51862 145.601 4.02207C146.168 3.49241 146.668 3.12828 147.102 2.92965C147.535 2.66483 148.235 2.46621 149.202 2.33379C150.202 2.16828 151.235 2.08552 152.302 2.08552C153.402 2.08552 154.302 2.23448 155.002 2.53241C155.269 2.66483 155.536 2.81379 155.803 2.97931C156.069 3.14483 156.319 3.29379 156.553 3.42621C157.086 3.65793 157.519 4.08828 157.853 4.71724C157.886 4.84965 157.936 4.98207 158.003 5.11448C158.103 5.21379 158.186 5.32965 158.253 5.46207Z" fill="white"/>
<path d="M175.114 16.4359C175.581 17.131 175.548 17.7766 175.014 18.3724C174.981 18.3724 174.948 18.389 174.914 18.4221C174.914 18.4221 174.898 18.4221 174.864 18.4221C174.598 18.6869 174.414 18.9848 174.314 19.3159C174.048 19.8455 173.648 20.2262 173.114 20.4579C172.581 20.6566 171.997 20.789 171.364 20.8552C170.731 20.9214 170.131 21.0041 169.564 21.1035C169.197 21.2028 168.864 21.3186 168.564 21.451C168.264 21.5503 167.947 21.6331 167.614 21.6993C166.814 21.8979 166.147 21.7324 165.613 21.2028C165.48 21.0703 165.347 20.9545 165.213 20.8552C165.08 20.7228 164.947 20.5903 164.813 20.4579C164.613 20.2924 164.397 20.2593 164.163 20.3586C163.93 20.4248 163.813 20.5903 163.813 20.8552C163.747 21.4841 163.88 22.1297 164.213 22.7917C164.58 23.4207 164.98 23.8676 165.413 24.1324C166.047 24.4303 166.78 24.5628 167.614 24.5297C168.447 24.4966 169.297 24.3807 170.164 24.1821C171.031 23.9835 171.814 23.8179 172.514 23.6855C172.781 23.6193 173.064 23.6359 173.364 23.7352C173.698 23.8345 173.948 24.0166 174.114 24.2814C174.148 24.3145 174.181 24.3641 174.214 24.4303C174.281 24.4966 174.314 24.5628 174.314 24.629C174.481 24.96 174.498 25.291 174.364 25.6221C174.264 25.9531 174.064 26.2014 173.764 26.3669C173.764 26.4 173.748 26.4166 173.714 26.4166C173.681 26.4166 173.648 26.4497 173.614 26.5159C173.481 26.6483 173.314 26.7641 173.114 26.8635C172.914 26.9297 172.731 26.9959 172.564 27.0621C171.997 27.1945 171.447 27.2938 170.914 27.36C170.414 27.4593 169.831 27.5421 169.164 27.6083C168.897 27.7076 168.63 27.7076 168.364 27.6083C167.53 27.4759 166.664 27.36 165.763 27.2607C164.863 27.1614 164.03 26.9462 163.263 26.6152C162.53 26.251 161.946 25.6386 161.513 24.7779C161.48 24.7117 161.43 24.6455 161.363 24.5793C161.33 24.5131 161.296 24.4303 161.263 24.331C160.73 23.6028 160.446 22.6924 160.413 21.6C160.38 20.4745 160.53 19.3655 160.863 18.2731C161.196 17.1807 161.613 16.32 162.113 15.691C162.48 15.2607 162.896 14.9628 163.363 14.7972C163.83 14.5986 164.33 14.3338 164.863 14.0028C165.963 13.3738 167.18 13.0924 168.514 13.1586C169.847 13.1917 171.114 13.5062 172.314 14.1021C173.514 14.6648 174.448 15.4428 175.114 16.4359ZM171.864 16.3366C171.831 16.2372 171.764 16.171 171.664 16.1379C171.564 16.0717 171.464 16.0221 171.364 15.989C170.864 15.989 170.264 16.0221 169.564 16.0883C168.897 16.1214 168.514 16.171 168.414 16.2372C168.347 16.3035 168.214 16.3697 168.014 16.4359C167.58 16.6345 167.13 16.8 166.664 16.9324C166.23 17.0317 165.847 17.1972 165.513 17.429C165.28 17.5614 165.197 17.76 165.263 18.0248C165.363 18.2897 165.547 18.4386 165.813 18.4717C166.68 18.6041 167.58 18.5876 168.514 18.4221C169.447 18.2235 170.281 17.9586 171.014 17.6276C171.314 17.429 171.597 17.1972 171.864 16.9324C172.031 16.7007 172.031 16.5021 171.864 16.3366Z" fill="white"/>
<path d="M196.112 18.3724C196.612 20.1931 196.845 21.8317 196.812 23.2883C196.812 24.7448 196.628 25.8703 196.262 26.6648C195.928 27.4593 195.462 27.7738 194.862 27.6083C194.695 27.5421 194.412 27.4924 194.012 27.4593C193.611 27.4593 193.245 27.36 192.911 27.1614C192.578 26.9628 192.378 26.5821 192.311 26.0193C192.278 25.6221 192.261 25.291 192.261 25.0262C192.261 24.7614 192.261 24.3972 192.261 23.9338C192.261 23.4703 192.228 22.7917 192.161 21.8979C192.095 20.7724 191.728 19.829 191.061 19.0676C190.428 18.3062 189.578 17.8759 188.511 17.7766C187.444 17.6441 186.227 18.0248 184.86 18.9186C184.194 19.3821 183.594 20.011 183.06 20.8055C182.56 21.6 182.127 22.411 181.76 23.2386C181.393 24.0331 181.093 24.7283 180.86 25.3241C180.66 25.7545 180.427 26.1517 180.16 26.5159C179.893 26.88 179.46 27.0455 178.86 27.0124C178.493 27.0124 178.06 27.0621 177.56 27.1614C177.093 27.2276 176.876 27.0455 176.91 26.6152C177.043 24.5297 177.276 22.4276 177.61 20.309C177.943 18.1572 178.276 16.2703 178.61 14.6483C178.676 14.3172 178.826 14.069 179.06 13.9035C179.327 13.7379 179.593 13.6717 179.86 13.7048C180.627 13.8372 181.21 14.069 181.61 14.4C182.01 14.731 182.177 15.5421 182.11 16.8331C182.077 16.9986 182.144 17.131 182.31 17.2303C182.51 17.2966 182.677 17.2635 182.81 17.131C183.744 16.2703 184.927 15.5586 186.361 14.9959C187.828 14.4331 189.478 14.3338 191.311 14.6979C192.345 14.9297 193.228 15.2772 193.962 15.7407C194.695 16.171 195.328 16.8662 195.862 17.8262C195.995 17.9917 196.078 18.1738 196.112 18.3724Z" fill="white"/>
<path d="M212.847 22.8414C213.014 23.6359 212.781 24.2483 212.147 24.6786C212.014 24.811 211.88 24.9435 211.747 25.0759C211.647 25.1752 211.564 25.291 211.497 25.4235C211.33 25.7214 211.114 25.9697 210.847 26.1683C210.614 26.3338 210.364 26.4828 210.097 26.6152C208.863 27.1117 207.613 27.4593 206.346 27.6579C205.113 27.8897 203.83 27.8235 202.496 27.4593C202.163 27.36 201.729 27.1283 201.196 26.7641C200.663 26.4 200.229 26.0193 199.896 25.6221C199.829 25.4897 199.712 25.3241 199.546 25.1255C199.412 24.8938 199.279 24.6621 199.146 24.4303C199.079 24.1655 199.129 23.9172 199.296 23.6855C199.462 23.4538 199.712 23.371 200.046 23.4372C200.512 23.5366 200.929 23.669 201.296 23.8345C201.663 24 202.013 24.1655 202.346 24.331C202.746 24.5297 203.146 24.629 203.546 24.629C204.546 24.6621 205.513 24.5462 206.447 24.2814C207.413 23.9835 208.13 23.5035 208.597 22.8414C208.797 22.5766 208.83 22.2952 208.697 21.9972C208.563 21.6993 208.363 21.5172 208.097 21.451C207.263 21.2855 206.413 21.1862 205.546 21.1531C204.713 21.0869 203.813 20.8221 202.846 20.3586C202.079 19.9283 201.629 19.3821 201.496 18.72C201.463 18.6538 201.429 18.571 201.396 18.4717C201.363 18.3393 201.313 18.2235 201.246 18.1241C201.113 17.8593 201.029 17.5614 200.996 17.2303C200.963 16.8993 200.996 16.5683 201.096 16.2372C201.263 15.6745 201.496 15.1614 201.796 14.6979C202.129 14.2345 202.463 13.7545 202.796 13.2579C203.163 12.7614 203.613 12.4138 204.146 12.2152C204.813 11.9503 205.496 11.8345 206.196 11.8676C206.93 11.9007 207.58 11.9172 208.147 11.9172C208.513 11.9172 208.88 11.9834 209.247 12.1159C209.714 12.2814 210.18 12.4469 210.647 12.6124C211.114 12.7779 211.53 13.0428 211.897 13.4069C212.13 13.6386 212.28 14.0028 212.347 14.4993C212.447 14.9959 212.414 15.4097 212.247 15.7407C212.114 16.0717 211.78 16.1379 211.247 15.9393C210.88 15.7738 210.564 15.5917 210.297 15.3931C210.064 15.1614 209.73 15.0124 209.297 14.9462C208.963 14.9131 208.463 14.88 207.797 14.8469C207.163 14.7807 206.697 14.7807 206.396 14.8469C205.83 14.9462 205.33 15.2276 204.896 15.691C204.863 15.7572 204.83 15.9724 204.796 16.3366C204.796 16.6676 204.813 16.9986 204.846 17.3297C204.88 17.6607 204.93 17.8428 204.996 17.8759C205.296 18.0414 205.796 18.1407 206.497 18.1738C207.23 18.1738 207.863 18.1407 208.397 18.0745C208.53 18.0745 208.647 18.1241 208.747 18.2235C208.78 18.3559 208.897 18.4221 209.097 18.4221C209.864 18.5214 210.464 18.8028 210.897 19.2662C211.33 19.6966 211.747 20.1435 212.147 20.6069C212.514 21.0372 212.731 21.5503 212.797 22.1462C212.797 22.2786 212.797 22.3945 212.797 22.4938C212.831 22.5931 212.847 22.709 212.847 22.8414Z" fill="white"/>
<path d="M229.673 16.4359C230.14 17.131 230.107 17.7766 229.573 18.3724C229.54 18.3724 229.507 18.389 229.473 18.4221C229.473 18.4221 229.457 18.4221 229.423 18.4221C229.157 18.6869 228.973 18.9848 228.873 19.3159C228.607 19.8455 228.206 20.2262 227.673 20.4579C227.14 20.6566 226.556 20.789 225.923 20.8552C225.289 20.9214 224.689 21.0041 224.123 21.1035C223.756 21.2028 223.423 21.3186 223.123 21.451C222.823 21.5503 222.506 21.6331 222.172 21.6993C221.372 21.8979 220.706 21.7324 220.172 21.2028C220.039 21.0703 219.906 20.9545 219.772 20.8552C219.639 20.7228 219.506 20.5903 219.372 20.4579C219.172 20.2924 218.955 20.2593 218.722 20.3586C218.489 20.4248 218.372 20.5903 218.372 20.8552C218.305 21.4841 218.439 22.1297 218.772 22.7917C219.139 23.4207 219.539 23.8676 219.972 24.1324C220.606 24.4303 221.339 24.5628 222.172 24.5297C223.006 24.4966 223.856 24.3807 224.723 24.1821C225.59 23.9835 226.373 23.8179 227.073 23.6855C227.34 23.6193 227.623 23.6359 227.923 23.7352C228.256 23.8345 228.506 24.0166 228.673 24.2814C228.707 24.3145 228.74 24.3641 228.773 24.4303C228.84 24.4966 228.873 24.5628 228.873 24.629C229.04 24.96 229.057 25.291 228.923 25.6221C228.823 25.9531 228.623 26.2014 228.323 26.3669C228.323 26.4 228.306 26.4166 228.273 26.4166C228.24 26.4166 228.206 26.4497 228.173 26.5159C228.04 26.6483 227.873 26.7641 227.673 26.8635C227.473 26.9297 227.29 26.9959 227.123 27.0621C226.556 27.1945 226.006 27.2938 225.473 27.36C224.973 27.4593 224.389 27.5421 223.723 27.6083C223.456 27.7076 223.189 27.7076 222.923 27.6083C222.089 27.4759 221.222 27.36 220.322 27.2607C219.422 27.1614 218.589 26.9462 217.822 26.6152C217.089 26.251 216.505 25.6386 216.072 24.7779C216.038 24.7117 215.988 24.6455 215.922 24.5793C215.888 24.5131 215.855 24.4303 215.822 24.331C215.288 23.6028 215.005 22.6924 214.972 21.6C214.938 20.4745 215.088 19.3655 215.422 18.2731C215.755 17.1807 216.172 16.32 216.672 15.691C217.039 15.2607 217.455 14.9628 217.922 14.7972C218.389 14.5986 218.889 14.3338 219.422 14.0028C220.522 13.3738 221.739 13.0924 223.073 13.1586C224.406 13.1917 225.673 13.5062 226.873 14.1021C228.073 14.6648 229.007 15.4428 229.673 16.4359ZM226.423 16.3366C226.39 16.2372 226.323 16.171 226.223 16.1379C226.123 16.0717 226.023 16.0221 225.923 15.989C225.423 15.989 224.823 16.0221 224.123 16.0883C223.456 16.1214 223.073 16.171 222.973 16.2372C222.906 16.3035 222.773 16.3697 222.573 16.4359C222.139 16.6345 221.689 16.8 221.222 16.9324C220.789 17.0317 220.406 17.1972 220.072 17.429C219.839 17.5614 219.756 17.76 219.822 18.0248C219.922 18.2897 220.106 18.4386 220.372 18.4717C221.239 18.6041 222.139 18.5876 223.073 18.4221C224.006 18.2235 224.839 17.9586 225.573 17.6276C225.873 17.429 226.156 17.1972 226.423 16.9324C226.59 16.7007 226.59 16.5021 226.423 16.3366Z" fill="white"/>
</svg>
