<svg width="56" height="38" viewBox="0 0 56 38" fill="none" xmlns="http://www.w3.org/2000/svg">
<path d="M26.309 16.8424C28.7845 18.5519 31.2601 20.1982 33.7357 21.9077C35.1322 21.4012 36.4652 20.8313 37.7982 20.3248C35.513 18.7419 33.2279 17.2223 30.9427 15.6393C29.3558 16.0826 27.8324 16.4625 26.309 16.8424Z" fill="white"/>
<path d="M10.059 1.45639C8.02776 1.51971 5.99651 1.58302 3.96527 1.64634C6.44085 3.35591 8.91643 5.00215 11.392 6.71172C13.2328 6.52176 15.0736 6.33181 16.9144 6.14186C14.6293 4.55893 12.3442 2.976 10.059 1.45639Z" fill="white"/>
<path d="M24.2142 11.0805C22.5004 11.3971 20.85 11.6504 19.1361 11.967C21.3578 13.4866 23.5795 15.0062 25.8011 16.5258C27.3246 16.1459 28.848 15.7027 30.4349 15.3228C28.3402 13.8665 26.2455 12.4735 24.2142 11.0805Z" fill="white"/>
<path d="M17.4223 6.45837C15.5815 6.64833 13.7407 6.83828 11.8999 7.02823C14.1216 8.54784 16.3432 10.0675 18.5649 11.5237C20.2788 11.2072 21.9292 10.9539 23.643 10.6373C21.5483 9.24433 19.4536 7.85135 17.4223 6.45837Z" fill="white"/>
<path d="M21.5483 5.63524C20.9135 5.19202 20.3423 4.81212 19.8344 4.43222C18.3745 3.41914 16.978 2.46938 15.5181 1.45631C15.3911 1.39299 15.0737 1.26636 14.9468 1.26636C13.6138 1.26636 12.3442 1.32967 11.0112 1.39299C13.2964 2.9126 15.5181 4.43222 17.8032 6.01515C18.9458 5.88851 20.2153 5.76188 21.5483 5.63524Z" fill="white"/>
<path d="M40.7816 18.7419C38.8773 17.4755 37.0365 16.2092 35.1322 14.8795C35.0052 14.8162 34.8783 14.7529 34.7513 14.6263C33.6722 14.8795 32.5931 15.1961 31.5775 15.4494C33.8627 16.969 36.0843 18.4886 38.3695 20.0715C39.1947 19.7549 40.0199 19.4384 40.8451 19.1218C41.099 18.9951 41.0355 18.9318 40.7816 18.7419Z" fill="white"/>
<path d="M41.7339 18.7419C42.6225 18.4253 43.4477 18.0454 44.3364 17.7288C44.5903 17.6022 44.6538 17.5389 44.3364 17.3489C42.5591 16.1459 40.8452 15.0062 39.1313 13.8032C39.0044 13.7398 38.8774 13.6765 38.7505 13.5499C37.6079 13.8665 36.5288 14.1198 35.4497 14.4363C37.5444 15.8926 39.5757 17.3489 41.7339 18.7419Z" fill="white"/>
<path d="M20.2152 1.13974C18.8187 1.20306 17.4222 1.20306 16.0258 1.26637C18.1205 2.72267 20.2152 4.11565 22.3099 5.57194C23.6429 5.44531 24.9124 5.31867 26.3089 5.12872C24.4046 3.79906 22.5003 2.53272 20.5961 1.26637C20.4691 1.20306 20.2787 1.13974 20.2152 1.13974Z" fill="white"/>
<path d="M33.799 14.4363C34.1799 14.373 34.1799 14.2464 33.8625 14.0564C32.1487 12.9167 30.4348 11.7137 28.7209 10.574C28.594 10.5107 28.467 10.4473 28.3401 10.3207C27.134 10.5107 25.9915 10.7639 24.8489 10.9539C26.8801 12.3469 28.9114 13.7398 31.0061 15.1328C31.9582 14.8795 32.8469 14.6263 33.799 14.4363Z" fill="white"/>
<path d="M18.2474 6.39509C20.3422 7.78807 22.3099 9.18105 24.3412 10.574C25.4837 10.3841 26.6263 10.1941 27.8324 9.94086C25.8646 8.6112 23.9603 7.28153 21.9925 5.95187C20.723 6.14183 19.517 6.26846 18.2474 6.39509Z" fill="white"/>
<path d="M34.8782 14.1197C36.0207 13.8031 37.0998 13.5498 38.1789 13.2332C36.3381 11.9669 34.5608 10.7639 32.7834 9.56085C31.5774 9.7508 30.3713 10.0041 29.1653 10.194C31.0696 11.5237 32.9739 12.79 34.8782 14.1197Z" fill="white"/>
<path d="M28.5939 9.8142C29.7999 9.62425 31.006 9.37098 32.212 9.18103C30.4347 7.97801 28.5939 6.71166 26.8165 5.50864C25.4835 5.63527 24.214 5.76191 22.881 5.95186C24.7853 7.2182 26.6896 8.48454 28.5939 9.8142Z" fill="white"/>
<path d="M41.8607 11.7771C43.5746 12.9168 45.2884 14.1198 46.9388 15.2595C47.891 14.8796 48.7796 14.563 49.7318 14.1831C48.1449 13.1067 46.558 12.0303 45.0345 10.9539C44.0189 11.2072 42.9398 11.4605 41.8607 11.7771Z" fill="white"/>
<path d="M30.6887 1.13974C29.2922 1.20306 27.8957 1.26637 26.4993 1.26637C28.2131 2.4694 29.927 3.60911 31.5774 4.74882C32.8469 4.62218 34.1164 4.49555 35.386 4.36892C33.799 3.22921 32.2756 2.21613 30.6887 1.13974Z" fill="white"/>
<path d="M55.762 12.2202L38.4964 0.569854C38.179 0.379903 37.9251 0.189951 37.9251 0.189951H37.8616C37.8616 0.189951 37.5442 0.189951 37.1634 0.189951L25.1029 0.506537C24.722 0.506537 24.2142 0.506537 24.0238 0.506537C23.8334 0.506537 23.7699 0.633171 23.9603 0.759805C24.1507 0.88644 24.5316 1.13971 24.849 1.39298L35.3861 8.61113C35.3861 9.24431 35.3861 9.75084 35.3861 10.0041L21.4213 0.633172C20.9769 0.316586 20.5961 0.0633162 20.5326 0.0633162C20.4691 0.0633162 20.4691 0 20.4056 0C20.3422 0 19.8978 0 19.39 0L1.87053 0.506537C1.36272 0.506537 0.601005 0.569854 0.283624 0.569854C-0.0337581 0.569854 -0.0972344 0.759806 0.156671 0.949758C0.410577 1.13971 0.981864 1.51961 1.4262 1.8362L15.0101 11.2071C15.0101 16.8424 15.0101 27.9229 15.0101 34.6345C12.598 35.7742 11.0111 36.534 10.9477 36.5973C10.3764 37.1039 14.3119 37.4204 15.0101 37.2938C15.7719 37.0405 46.1136 21.0846 51.5725 17.9188H51.0647C51.0647 17.9188 47.2561 19.755 42.8128 22.0344V20.0715L46.5579 18.362C47.0657 18.172 47.0657 17.7288 46.6214 17.4122L42.8128 14.8162V13.5499L46.3675 16.0826C46.6848 16.2725 46.8753 16.4625 46.9387 16.5258C47.0022 16.5258 47.2561 16.4625 47.5735 16.3358L55.762 12.8534C56.0793 12.6634 56.0793 12.4102 55.762 12.2202ZM22.3734 31.2154C20.5961 32.0385 18.6918 32.7983 17.4222 33.4948V12.7268L22.3099 16.1459C22.3734 21.9077 22.3734 25.4535 22.3734 31.2154ZM25.0394 30.139V17.7288L32.7835 23.2374C33.2279 23.554 33.5452 23.8073 33.5452 23.8706C33.6087 23.9339 33.9896 23.7439 34.4974 23.554L35.2591 23.1741L35.4495 25.3269C31.9583 26.9098 28.2132 28.556 25.0394 30.139ZM41.1624 22.7309C39.8294 23.364 38.3694 23.9972 37.0999 24.6937V22.6042L41.2259 20.768L41.1624 22.7309ZM45.3518 17.2856C45.7962 17.6022 45.7327 17.9821 45.2884 18.172L34.5609 22.6042C34.053 22.7942 33.2913 22.7309 32.847 22.4143L2.94963 1.8362C2.5053 1.51961 2.56877 1.26634 3.14006 1.26634L19.3265 0.569854C19.8343 0.569854 20.6595 0.759805 21.1039 1.07639L45.3518 17.2856ZM35.3226 10.0041C35.3226 9.68753 35.3226 9.30762 35.3226 8.92772C35.3226 9.18099 35.3226 9.56089 35.3226 10.0041ZM37.0999 10.9539V9.56089L41.4798 12.6001L41.3528 13.8665L37.0999 10.9539ZM55.0002 12.6634L47.5735 15.7027C47.2561 15.8293 46.6848 15.766 46.4309 15.576L25.7376 1.39298C25.4203 1.20303 25.4837 1.01307 25.8646 1.01307L37.0999 0.506537C37.4808 0.506537 38.0521 0.633171 38.306 0.823123L55.0637 12.0303C55.3811 12.2835 55.3176 12.5368 55.0002 12.6634Z" fill="white"/>
<path d="M40.4642 7.78799C39.2582 7.97795 38.1156 8.23121 36.973 8.42117C38.4965 9.49756 40.0199 10.5106 41.5433 11.5237C42.6224 11.2704 43.638 10.9539 44.7171 10.7006C43.2572 9.68751 41.8607 8.73775 40.4642 7.78799Z" fill="white"/>
<path d="M35.7668 4.55887C34.4973 4.6855 33.2278 4.81214 31.9583 4.93877C33.4817 6.01516 35.0051 7.02824 36.5285 8.04131C37.7346 7.85136 38.8772 7.66141 40.0197 7.40814C38.6233 6.5217 37.1633 5.57194 35.7668 4.55887Z" fill="white"/>
<path d="M38.6234 3.98903C38.1791 3.67244 37.7982 3.41918 37.4173 3.16591C36.4017 2.46942 35.4496 1.83625 34.4339 1.13976C34.3705 1.07644 34.1166 1.01312 33.9896 1.01312C33.1009 1.01312 32.2123 1.07644 31.2601 1.07644C32.847 2.15283 34.3705 3.16591 35.9574 4.2423C36.8461 4.17898 37.6712 4.11566 38.6234 3.98903Z" fill="white"/>
<path d="M51.89 13.0434C50.557 12.1569 49.2875 11.2705 47.9545 10.384C47.891 10.3207 47.764 10.2574 47.7006 10.1941C46.9388 10.384 46.2406 10.574 45.4789 10.7639C47.0658 11.8403 48.5892 12.8534 50.1761 13.9298C50.7474 13.6765 51.3187 13.4866 51.89 13.2966C52.0804 13.2333 52.0804 13.17 51.89 13.0434Z" fill="white"/>
<path d="M54.3021 12.1569C53.0961 11.3338 51.89 10.5107 50.684 9.68757C50.6205 9.62425 50.4935 9.56094 50.43 9.49762C49.6683 9.68757 48.9066 9.87752 48.1449 10.0675C49.6049 11.0805 51.0648 12.0303 52.5248 13.0434C53.1595 12.7901 53.7308 12.6002 54.3021 12.3469C54.4925 12.3469 54.4925 12.2836 54.3021 12.1569Z" fill="white"/>
<path d="M41.8607 3.67241C40.5277 2.78597 39.2582 1.89952 37.9252 1.01308C37.8617 0.949767 37.7347 0.949768 37.6713 0.949768C36.7191 0.949768 35.767 1.01308 34.7513 1.0764C36.2113 2.08948 37.6078 3.03923 39.1312 4.05231C40.0199 3.86236 40.972 3.73572 41.8607 3.67241Z" fill="white"/>
<path d="M47.0658 10.0675C47.3197 10.0042 47.3197 9.94087 47.1293 9.81424C45.9232 8.99111 44.7806 8.23131 43.5746 7.40818C43.5111 7.34487 43.3841 7.28155 43.3207 7.21823C42.4955 7.34487 41.7338 7.4715 40.9086 7.66145C42.305 8.61121 43.7015 9.56097 45.1615 10.574C45.7962 10.3841 46.431 10.1941 47.0658 10.0675Z" fill="white"/>
<path d="M36.3379 4.55886C37.7344 5.50862 39.1309 6.45838 40.5908 7.40814C41.416 7.2815 42.1777 7.15487 43.0029 6.96492C41.6699 6.07848 40.3369 5.12872 39.0039 4.24228C38.0518 4.36891 37.2266 4.43223 36.3379 4.55886Z" fill="white"/>
<path d="M47.8276 9.87753C48.5893 9.68758 49.3511 9.49763 50.1128 9.30768C48.8432 8.42124 47.6372 7.59812 46.3677 6.77499C45.5425 6.90163 44.7173 7.09158 43.8286 7.21821C45.1616 8.04134 46.4946 8.92778 47.8276 9.87753Z" fill="white"/>
<path d="M43.4477 6.9016C44.2729 6.77496 45.0981 6.58501 45.9233 6.45838C44.6538 5.63525 43.4477 4.74881 42.1782 3.92569C41.2895 3.98901 40.4009 4.11564 39.4487 4.24228C40.8452 5.12872 42.1147 6.01516 43.4477 6.9016Z" fill="white"/>
</svg>
