<svg width="208" height="32" viewBox="0 0 208 32" fill="none" xmlns="http://www.w3.org/2000/svg">
<path d="M23.1118 14.4408C25.2865 15.9066 27.4612 17.3181 29.636 18.7839C30.8627 18.3496 32.0338 17.861 33.2048 17.4267C31.1973 16.0695 29.1899 14.7665 27.1824 13.4093C25.7884 13.7893 24.4501 14.1151 23.1118 14.4408Z" fill="#3F3250"/>
<path d="M8.83657 1.24864C7.05218 1.30293 5.26778 1.35722 3.48338 1.41151C5.65811 2.8773 7.83285 4.28881 10.0076 5.7546C11.6247 5.59174 13.2418 5.42887 14.8589 5.26601C12.8515 3.90879 10.844 2.55157 8.83657 1.24864Z" fill="#3F3250"/>
<path d="M21.2716 9.50053C19.766 9.77197 18.3162 9.98912 16.8106 10.2606C18.7623 11.5635 20.714 12.8664 22.6657 14.1694C24.004 13.8436 25.3423 13.4636 26.7363 13.1379C24.8962 11.8892 23.056 10.6949 21.2716 9.50053Z" fill="#3F3250"/>
<path d="M15.305 5.53745C13.6879 5.70032 12.0708 5.86318 10.4537 6.02605C12.4054 7.32898 14.3571 8.63191 16.3087 9.88055C17.8143 9.60911 19.2642 9.39195 20.7697 9.12051C18.9296 7.92615 17.0894 6.7318 15.305 5.53745Z" fill="#3F3250"/>
<path d="M18.9296 4.8317C18.372 4.45167 17.8701 4.12594 17.424 3.80021C16.1415 2.93159 14.9147 2.11726 13.6321 1.24864C13.5206 1.19435 13.2418 1.08577 13.1303 1.08577C11.9593 1.08577 10.844 1.14006 9.67301 1.19435C11.6805 2.49728 13.6321 3.80021 15.6396 5.15743C16.6433 5.04885 17.7586 4.94027 18.9296 4.8317Z" fill="#3F3250"/>
<path d="M35.8256 16.0695C34.1527 14.9837 32.5356 13.8979 30.8628 12.7579C30.7512 12.7036 30.6397 12.6493 30.5282 12.5407C29.5802 12.7579 28.6322 13.0293 27.7401 13.2465C29.7475 14.5494 31.6992 15.8523 33.7066 17.2095C34.4315 16.9381 35.1565 16.6666 35.8814 16.3952C36.1044 16.2866 36.0487 16.2323 35.8256 16.0695Z" fill="#3F3250"/>
<path d="M36.662 16.0695C37.4427 15.798 38.1676 15.4723 38.9483 15.2008C39.1714 15.0923 39.2271 15.038 38.9483 14.8751C37.387 13.8436 35.8814 12.8664 34.3758 11.8349C34.2643 11.7807 34.1527 11.7264 34.0412 11.6178C33.0375 11.8892 32.0895 12.1064 31.1416 12.3778C32.9817 13.6265 34.7661 14.8751 36.662 16.0695Z" fill="#3F3250"/>
<path d="M17.7586 0.977196C16.5318 1.03148 15.305 1.03148 14.0782 1.08577C15.9184 2.33441 17.7586 3.52877 19.5987 4.77741C20.7697 4.66883 21.885 4.56025 23.1118 4.39739C21.4389 3.25732 19.766 2.17155 18.0931 1.08577C17.9816 1.03148 17.8143 0.977196 17.7586 0.977196Z" fill="#3F3250"/>
<path d="M29.6917 12.3778C30.0263 12.3235 30.0263 12.215 29.7475 12.0521C28.2419 11.0749 26.7363 10.0434 25.2307 9.06622C25.1192 9.01193 25.0077 8.95764 24.8962 8.84906C23.8367 9.01193 22.833 9.22908 21.8292 9.39195C23.6136 10.5863 25.398 11.7807 27.2382 12.975C28.0746 12.7578 28.8553 12.5407 29.6917 12.3778Z" fill="#3F3250"/>
<path d="M16.0299 5.48316C17.8701 6.67751 19.5987 7.87187 21.3831 9.06622C22.3869 8.90335 23.3906 8.74049 24.4501 8.52333C22.7214 7.38327 21.0486 6.2432 19.3199 5.10314C18.2047 5.26601 17.1452 5.37458 16.0299 5.48316Z" fill="#3F3250"/>
<path d="M30.6397 12.1064C31.6434 11.8349 32.5914 11.6178 33.5393 11.3463C31.9222 10.2606 30.3609 9.22908 28.7995 8.1976C27.7401 8.36046 26.6806 8.57762 25.6211 8.74048C27.2939 9.88055 28.9668 10.9663 30.6397 12.1064Z" fill="#3F3250"/>
<path d="M25.1192 8.41475C26.1787 8.25189 27.2382 8.03473 28.2977 7.87187C26.7363 6.84038 25.1192 5.7546 23.5579 4.72312C22.3869 4.8317 21.2716 4.94027 20.1006 5.10314C21.7735 6.18891 23.4463 7.27469 25.1192 8.41475Z" fill="#3F3250"/>
<path d="M36.7736 10.0977C38.2792 11.0749 39.7847 12.1064 41.2346 13.0836C42.071 12.7579 42.8517 12.4864 43.6881 12.1607C42.2941 11.2378 40.9 10.3149 39.5617 9.39195C38.6695 9.60911 37.7215 9.82626 36.7736 10.0977Z" fill="#3F3250"/>
<path d="M26.9594 0.977196C25.7326 1.03148 24.5058 1.08577 23.2791 1.08577C24.7846 2.11726 26.2902 3.09446 27.7401 4.07165C28.8553 3.96308 29.9706 3.8545 31.0858 3.74592C29.6917 2.76872 28.3534 1.9001 26.9594 0.977196Z" fill="#3F3250"/>
<path d="M48.9855 10.4777L33.8182 0.488598C33.5393 0.325732 33.3163 0.162866 33.3163 0.162866H33.2605C33.2605 0.162866 32.9817 0.162866 32.6471 0.162866L22.0523 0.434309C21.7177 0.434309 21.2716 0.434309 21.1043 0.434309C20.937 0.434309 20.8813 0.542887 21.0486 0.651464C21.2158 0.760042 21.5504 0.977197 21.8292 1.19435L31.0858 7.38327C31.0858 7.92615 31.0858 8.36046 31.0858 8.57762L18.8181 0.542887C18.4277 0.271444 18.0931 0.0542879 18.0374 0.0542879C17.9816 0.0542879 17.9816 0 17.9259 0C17.8701 0 17.4798 0 17.0337 0L1.64322 0.434309C1.19712 0.434309 0.527969 0.488598 0.249157 0.488598C-0.0296557 0.488598 -0.0854181 0.651465 0.137632 0.814331C0.360682 0.977197 0.862544 1.30293 1.25288 1.57437L13.186 9.60911C13.186 14.4408 13.186 23.9413 13.186 29.6959C11.0671 30.6731 9.67301 31.3246 9.61725 31.3789C9.11539 31.8132 12.5727 32.0846 13.186 31.9761C13.8552 31.7589 40.5097 18.0781 45.3052 15.3637H44.8591C44.8591 15.3637 41.5134 16.9381 37.61 18.8925V17.2095L40.9 15.7437C41.3461 15.5809 41.3461 15.2008 40.9558 14.9294L37.61 12.7036V11.6178L40.7327 13.7893C41.0115 13.9522 41.1788 14.1151 41.2346 14.1694C41.2903 14.1694 41.5134 14.1151 41.7922 14.0065L48.9855 11.0206C49.2644 10.8577 49.2644 10.6406 48.9855 10.4777ZM19.6545 26.7643C18.0931 27.4701 16.4203 28.1216 15.305 28.7187V10.912L19.5987 13.8436C19.6545 18.7839 19.6545 21.8241 19.6545 26.7643ZM21.9965 25.8414V15.2008L28.7995 19.924C29.1899 20.1954 29.4687 20.4126 29.4687 20.4669C29.5245 20.5211 29.859 20.3583 30.3051 20.1954L30.9743 19.8697L31.1416 21.7155C28.0746 23.0727 24.7846 24.4842 21.9965 25.8414ZM36.1602 19.4897C34.9892 20.0325 33.7066 20.5754 32.5914 21.1726V19.3811L36.2159 17.8067L36.1602 19.4897ZM39.8405 14.8208C40.2308 15.0923 40.1751 15.418 39.7847 15.5809L30.3609 19.3811C29.9148 19.5439 29.2456 19.4897 28.8553 19.2182L2.59118 1.57437C2.20084 1.30293 2.25661 1.08577 2.75847 1.08577L16.9779 0.488598C17.424 0.488598 18.1489 0.651464 18.5392 0.922908L39.8405 14.8208ZM31.03 8.57762C31.03 8.30618 31.03 7.98044 31.03 7.65471C31.03 7.87186 31.03 8.1976 31.03 8.57762ZM32.5914 9.39195V8.1976L36.439 10.8035L36.3275 11.8892L32.5914 9.39195ZM48.3164 10.8577L41.7922 13.4636C41.5134 13.5722 41.0115 13.5179 40.7885 13.355L22.6099 1.19435C22.3311 1.03149 22.3869 0.868619 22.7214 0.868619L32.5914 0.434309C32.926 0.434309 33.4278 0.542887 33.6509 0.705753L48.3722 10.3149C48.651 10.532 48.5952 10.7492 48.3164 10.8577Z" fill="#3F3250"/>
<path d="M35.5468 6.67751C34.4873 6.84038 33.4836 7.05753 32.4799 7.2204C33.8182 8.14331 35.1565 9.01193 36.4948 9.88055C37.4427 9.66339 38.3349 9.39195 39.2829 9.17479C38.0003 8.30617 36.7736 7.49184 35.5468 6.67751Z" fill="#3F3250"/>
<path d="M31.4204 3.90879C30.3051 4.01736 29.1899 4.12594 28.0746 4.23452C29.4129 5.15743 30.7512 6.02605 32.0895 6.89467C33.149 6.7318 34.1527 6.56894 35.1565 6.35178C33.9297 5.59174 32.6471 4.77741 31.4204 3.90879Z" fill="#3F3250"/>
<path d="M33.9297 3.42019C33.5393 3.14875 33.2048 2.93159 32.8702 2.71444C31.978 2.11726 31.1416 1.57437 30.2494 0.977196C30.1936 0.922907 29.9705 0.868618 29.859 0.868618C29.0783 0.868618 28.2977 0.922907 27.4612 0.922907C28.8553 1.84582 30.1936 2.71444 31.5877 3.63734C32.3683 3.58305 33.0932 3.52877 33.9297 3.42019Z" fill="#3F3250"/>
<path d="M45.584 11.1835C44.413 10.4234 43.2978 9.66339 42.1268 8.90335C42.071 8.84906 41.9595 8.79477 41.9037 8.74048C41.2346 8.90335 40.6212 9.06622 39.952 9.22908C41.3461 10.152 42.6844 11.0206 44.0785 11.9435C44.5803 11.7264 45.0822 11.5635 45.584 11.4006C45.7513 11.3463 45.7513 11.2921 45.584 11.1835Z" fill="#3F3250"/>
<path d="M47.703 10.4234C46.6435 9.71768 45.584 9.01193 44.5245 8.30617C44.4688 8.25189 44.3573 8.1976 44.3015 8.14331C43.6323 8.30617 42.9632 8.46904 42.294 8.63191C43.5766 9.50053 44.8591 10.3149 46.1417 11.1835C46.6993 10.9663 47.2011 10.8035 47.703 10.5863C47.8703 10.5863 47.8703 10.532 47.703 10.4234Z" fill="#3F3250"/>
<path d="M36.7736 3.14875C35.6026 2.3887 34.4873 1.62866 33.3163 0.868619C33.2605 0.81433 33.149 0.814331 33.0933 0.814331C32.2568 0.814331 31.4204 0.868619 30.5282 0.922908C31.8107 1.79153 33.0375 2.60586 34.3758 3.47448C35.1565 3.31161 35.9929 3.20303 36.7736 3.14875Z" fill="#3F3250"/>
<path d="M41.3461 8.63191C41.5691 8.57762 41.5691 8.52333 41.4019 8.41475C40.3424 7.709 39.3386 7.05753 38.2792 6.35178C38.2234 6.29749 38.1119 6.2432 38.0561 6.18891C37.3312 6.29749 36.662 6.40607 35.9371 6.56893C37.1639 7.38327 38.3907 8.1976 39.6732 9.06622C40.2308 8.90335 40.7885 8.74048 41.3461 8.63191Z" fill="#3F3250"/>
<path d="M31.9222 3.90879C33.149 4.72312 34.3758 5.53745 35.6583 6.35178C36.3832 6.2432 37.0524 6.13463 37.7773 5.97176C36.6063 5.21172 35.4353 4.39739 34.2643 3.63734C33.4278 3.74592 32.7029 3.80021 31.9222 3.90879Z" fill="#3F3250"/>
<path d="M42.0152 8.46904C42.6844 8.30617 43.3535 8.14331 44.0227 7.98044C42.9074 7.2204 41.848 6.51465 40.7327 5.80889C40.0078 5.91747 39.2829 6.08034 38.5022 6.18891C39.6732 6.89467 40.8442 7.65471 42.0152 8.46904Z" fill="#3F3250"/>
<path d="M38.1676 5.91747C38.8925 5.80889 39.6175 5.64603 40.3424 5.53745C39.2271 4.8317 38.1676 4.07165 37.0524 3.3659C36.2717 3.42019 35.491 3.52877 34.6546 3.63734C35.8814 4.39739 36.9966 5.15743 38.1676 5.91747Z" fill="#3F3250"/>
<path d="M66.741 4.85517C66.8917 5.09057 66.9068 5.3554 66.7862 5.64966C66.6957 5.91448 66.4998 6.10575 66.1983 6.22345C65.8365 6.34115 65.4144 6.4 64.9321 6.4C64.4798 6.4 63.9673 6.41471 63.3945 6.44414C63.0629 6.44414 62.7463 6.50299 62.4448 6.62069C62.1434 6.73839 61.872 6.81195 61.6308 6.84138C61.058 6.87081 60.6058 6.79724 60.2742 6.62069C59.9425 6.44414 59.5355 6.45885 59.0532 6.66483C58.9326 6.7531 58.7818 6.88552 58.6009 7.06207C58.4502 7.2092 58.2994 7.34161 58.1487 7.45931C57.7568 7.69471 57.5005 8.00368 57.3799 8.38621C57.2292 8.88644 57.3347 9.28368 57.6965 9.57793C57.9377 9.84276 58.1789 10.0929 58.42 10.3283C58.6914 10.5637 58.9326 10.8138 59.1436 11.0786C59.3245 11.314 59.5355 11.4464 59.7767 11.4759C59.8973 11.4759 60.0631 11.5494 60.2742 11.6966C60.7264 12.0791 61.2088 12.4616 61.7213 12.8441C62.2338 13.2267 62.6408 13.6386 62.9423 14.08C63.0026 14.1389 63.0629 14.2271 63.1232 14.3448C63.2136 14.4331 63.3041 14.5067 63.3945 14.5655C64.0276 15.1246 64.4497 15.8749 64.6607 16.8166C64.9019 17.7582 64.9019 18.7145 64.6607 19.6855C64.4195 20.6271 63.907 21.4363 63.1232 22.1131C62.8217 22.4074 62.5051 22.7163 62.1735 23.04C61.8419 23.3343 61.4349 23.5549 60.9525 23.7021C60.9223 23.7315 60.8621 23.7315 60.7716 23.7021C60.6812 23.6726 60.6058 23.6579 60.5455 23.6579C59.9425 23.7756 59.3546 23.9375 58.7818 24.1435C58.209 24.3494 57.5457 24.4377 56.792 24.4083C56.4604 24.4083 56.1288 24.3789 55.7971 24.32C55.4655 24.2612 55.1188 24.2023 54.757 24.1435C54.2445 24.114 53.8074 23.9228 53.4456 23.5697C53.4154 23.5108 53.3853 23.4814 53.3551 23.4814C53.325 23.4814 53.2948 23.4667 53.2647 23.4372C53.0536 23.2901 52.8728 23.1283 52.722 22.9517C52.6014 22.7752 52.4959 22.5839 52.4055 22.3779C52.3452 22.1425 52.2547 21.9218 52.1341 21.7159C52.0135 21.4805 51.9382 21.2303 51.908 20.9655C51.8779 20.6713 51.9834 20.4653 52.2246 20.3476C52.4959 20.2299 52.7371 20.2446 52.9481 20.3917C53.2798 20.6566 53.6265 20.789 53.9882 20.789C55.2243 20.9655 56.3247 20.9214 57.2895 20.6566C58.2844 20.3623 59.1888 19.9062 60.0028 19.2883C60.2742 19.0823 60.5003 18.788 60.6812 18.4055C60.7415 18.2878 60.8018 18.1995 60.8621 18.1407C60.9223 18.0524 60.9676 17.9641 60.9977 17.8759C61.2088 17.611 61.3444 17.3315 61.4047 17.0372C61.5555 16.4782 61.4198 15.9779 60.9977 15.5366C60.4249 14.948 59.7616 14.4478 59.0079 14.0359C58.2542 13.6239 57.4854 13.1972 56.7016 12.7559C56.4001 12.5793 56.1288 12.3145 55.8876 11.9614C55.7067 11.726 55.5258 11.4906 55.3449 11.2552C55.1942 10.9903 55.0133 10.7255 54.8022 10.4607C54.5008 10.1664 54.3048 9.82805 54.2144 9.44552C54.0335 8.59219 53.8978 7.78299 53.8074 7.01793C53.7471 6.25287 53.9129 5.53195 54.3048 4.85517C54.4857 4.44322 54.8173 4.01655 55.2997 3.57517C55.8122 3.10437 56.2644 2.78069 56.6564 2.60414C57.0483 2.36874 57.6814 2.19218 58.5557 2.07448C59.4602 1.92736 60.3948 1.85379 61.3595 1.85379C62.3544 1.85379 63.1684 1.98621 63.8015 2.25103C64.0427 2.36873 64.2839 2.50115 64.5251 2.64828C64.7663 2.7954 64.9924 2.92782 65.2034 3.04552C65.6858 3.25149 66.0777 3.63402 66.3792 4.1931C66.4093 4.3108 66.4546 4.42851 66.5149 4.54621C66.6053 4.63448 66.6807 4.73747 66.741 4.85517Z" fill="#3F3250"/>
<path d="M83.7534 16.8166C83.7534 17.1108 83.663 17.3903 83.4821 17.6552C83.3012 17.92 83.1203 18.2437 82.9394 18.6262C82.9093 18.7145 82.9093 18.8175 82.9394 18.9352C82.9997 19.0235 82.9997 19.1117 82.9394 19.2C82.5777 19.9062 82.2159 20.4359 81.8541 20.789C81.5225 21.1421 81.1607 21.5099 80.7687 21.8924C80.407 22.1867 80.0753 22.3926 79.7739 22.5103C79.4121 22.628 79.0503 22.7605 78.6885 22.9076C78.3267 23.0547 77.98 23.2313 77.6484 23.4372C77.4675 23.5844 77.2263 23.7021 76.9249 23.7903C76.5329 23.9081 75.8847 24.0258 74.9803 24.1435C74.106 24.2317 73.096 24.0699 71.9504 23.6579C71.7996 23.5697 71.6489 23.4961 71.4982 23.4372C71.3776 23.349 71.2419 23.246 71.0911 23.1283C71.0007 23.04 70.9103 22.9517 70.8198 22.8635C70.7294 22.7752 70.6088 22.7163 70.458 22.6869C70.0661 22.5103 69.7495 22.2455 69.5084 21.8924C69.3878 21.7453 69.2521 21.5835 69.1014 21.4069C68.9506 21.2303 68.7999 21.0832 68.6491 20.9655C68.5285 20.8184 68.423 20.6713 68.3326 20.5241C68.2421 20.3476 68.1668 20.1563 68.1065 19.9503C67.8351 18.891 67.7899 17.817 67.9708 16.7283C68.1517 15.6101 68.5436 14.5949 69.1466 13.6828C69.7797 12.7412 70.5937 12.0055 71.5886 11.4759C72.5232 10.9756 73.5332 10.7844 74.6185 10.9021C75.7038 11.0198 76.6686 11.417 77.5127 12.0938C77.9348 12.388 78.2061 12.8294 78.3267 13.4179C78.387 13.6239 78.3117 13.8005 78.1006 13.9476C77.9197 14.0947 77.7238 14.1094 77.5127 13.9917C77.2414 13.8446 76.9399 13.6975 76.6083 13.5503C76.3068 13.4032 76.0355 13.3149 75.7943 13.2855C75.7038 13.2561 75.4325 13.2855 74.9803 13.3738C74.5582 13.4621 74.0758 13.6386 73.5332 13.9035C73.0206 14.1683 72.5684 14.5949 72.1765 15.1835C71.9655 15.4483 71.6941 15.8308 71.3625 16.331C71.061 16.8018 70.9253 17.2285 70.9555 17.611C71.0158 17.8759 71.0911 18.1554 71.1816 18.4497C71.3022 18.7145 71.4228 18.9646 71.5434 19.2C71.9052 19.9356 72.478 20.377 73.2618 20.5241C74.0457 20.6713 74.8446 20.6713 75.6586 20.5241C76.5028 20.377 77.1811 20.2152 77.6936 20.0386C78.1157 19.8915 78.4624 19.7002 78.7337 19.4648C79.0352 19.2294 79.2915 19.0235 79.5025 18.8469C80.1658 18.3761 80.5426 17.8023 80.6331 17.1255C80.7235 16.4487 80.6331 15.6984 80.3617 14.8745C80.3014 14.6979 80.3467 14.5361 80.4974 14.389C80.6783 14.2418 80.8743 14.2271 81.0853 14.3448C81.236 14.4331 81.3868 14.5214 81.5375 14.6097C81.6883 14.6685 81.8239 14.7421 81.9445 14.8303C82.0953 14.9186 82.246 15.0069 82.3968 15.0952C82.5475 15.1835 82.6832 15.3012 82.8038 15.4483C83.0449 15.6543 83.2711 15.8749 83.4821 16.1103C83.6931 16.3458 83.7836 16.5812 83.7534 16.8166Z" fill="#3F3250"/>
<path d="M92.0086 5.69379C91.7675 6.90023 91.4509 8.31264 91.059 9.93104C90.667 11.5494 90.2751 13.1972 89.8832 14.8745C89.4913 16.5517 89.1295 18.1407 88.7978 19.6414C88.4964 21.1126 88.2853 22.3191 88.1647 23.2607C88.1346 23.6726 87.9688 24.0846 87.6673 24.4966C87.3658 24.9379 86.9739 25.0851 86.4915 24.9379C86.3709 24.9085 86.2654 24.8644 86.1749 24.8055C86.0845 24.7761 85.979 24.7467 85.8584 24.7172C85.2856 24.5113 84.9087 24.0993 84.7278 23.4814C84.6977 23.4225 84.6675 23.349 84.6374 23.2607C84.6374 23.1724 84.6072 23.0841 84.5469 22.9959C84.3359 22.5251 84.3058 21.9954 84.4565 21.4069C84.758 20.171 85.1047 18.6851 85.4966 16.949C85.8885 15.2129 86.2955 13.4179 86.7176 11.5641C87.1397 9.68092 87.5467 7.88598 87.9386 6.17931C88.3607 4.47264 88.7376 3.01609 89.0692 1.80966C89.1596 1.54483 89.3104 1.29471 89.5214 1.05931C89.7324 0.823907 89.9887 0.691493 90.2902 0.662068C91.3454 0.485517 92.0388 0.809195 92.3704 1.6331C92.7322 2.42759 92.6116 3.78115 92.0086 5.69379Z" fill="#3F3250"/>
<path d="M110.512 22.3338C110.482 22.628 110.361 22.8782 110.15 23.0841C109.939 23.2901 109.668 23.3784 109.336 23.349C108.673 23.2901 108.024 23.0989 107.391 22.7752C106.788 22.4515 106.291 22.0984 105.899 21.7159C105.778 21.5687 105.628 21.5099 105.447 21.5393C105.296 21.5687 105.175 21.6717 105.085 21.8483C105.055 21.9954 104.904 22.1425 104.633 22.2897C104.512 22.3779 104.392 22.4809 104.271 22.5986C104.181 22.6869 104.075 22.7899 103.954 22.9076C103.743 23.143 103.502 23.349 103.231 23.5255C102.99 23.7021 102.764 23.9375 102.553 24.2317C102.161 24.7614 101.633 25.0556 100.97 25.1145C100.457 25.2028 99.9296 25.2322 99.387 25.2028C98.8443 25.1733 98.3318 25.0998 97.8494 24.9821C97.4273 24.8938 97.0354 24.7025 96.6736 24.4083C96.6133 24.3494 96.553 24.2906 96.4927 24.2317C96.4324 24.1729 96.3571 24.1287 96.2666 24.0993C95.8747 23.8639 95.5581 23.5549 95.3169 23.1724C94.925 22.4956 94.5783 21.7747 94.2768 21.0097C93.9753 20.2152 93.9301 19.3766 94.1412 18.4938C94.2919 17.817 94.5482 17.0961 94.9099 16.331C95.3019 15.5366 95.6637 14.8745 95.9953 14.3448C96.6887 13.2855 97.6082 12.4616 98.7538 11.8731C99.8995 11.2552 101.151 11.0639 102.507 11.2993C103.653 11.5053 104.648 11.8878 105.492 12.4469C106.366 13.006 107.12 13.7416 107.753 14.6538C107.904 14.8598 107.934 15.0657 107.844 15.2717C107.783 15.4777 107.633 15.6101 107.391 15.669C106.909 15.7572 106.502 15.669 106.17 15.4041C105.417 14.7274 104.512 14.389 103.457 14.389C102.402 14.389 101.437 14.6244 100.563 15.0952C100.442 15.154 100.337 15.2129 100.246 15.2717C100.186 15.3306 100.126 15.4041 100.065 15.4924C99.7035 15.8161 99.3267 16.2133 98.9347 16.6841C98.573 17.1549 98.2715 17.7729 98.0303 18.5379C97.9097 18.9205 97.7589 19.3471 97.5781 19.8179C97.4273 20.2887 97.367 20.7301 97.3972 21.1421C97.3972 21.4363 97.5178 21.6864 97.759 21.8924C98.0001 22.069 98.2715 22.1425 98.573 22.1131C99.598 21.966 100.442 21.6423 101.105 21.1421C101.769 20.6124 102.372 20.0386 102.914 19.4207C103.487 18.8028 104.105 18.2437 104.768 17.7435C105.04 17.5669 105.341 17.4933 105.673 17.5228C106.005 17.5522 106.276 17.6846 106.487 17.92C106.788 18.1554 107.014 18.4938 107.165 18.9352C107.316 19.3766 107.452 19.8326 107.572 20.3035C107.663 20.5977 107.828 20.8478 108.07 21.0538C108.341 21.2303 108.642 21.3039 108.974 21.2745H109.426C109.758 21.2451 110.029 21.3333 110.24 21.5393C110.451 21.7453 110.542 22.0101 110.512 22.3338Z" fill="#3F3250"/>
<path d="M126.401 14.6538C126.551 14.948 126.521 15.2276 126.31 15.4924C126.129 15.7572 125.888 15.8749 125.587 15.8455C125.255 15.7867 124.893 15.7278 124.501 15.669C124.14 15.5807 123.838 15.5807 123.597 15.669C123.567 15.6984 123.356 15.8602 122.964 16.1545C122.602 16.4487 122.27 16.6694 121.969 16.8166C121.336 17.1402 120.778 17.5669 120.296 18.0966C119.843 18.5968 119.376 19.0676 118.894 19.509C118.773 19.6561 118.637 19.8032 118.487 19.9503C118.366 20.0681 118.246 20.2005 118.125 20.3476C118.004 20.5536 117.854 20.7301 117.673 20.8772C117.492 20.9949 117.311 21.1274 117.13 21.2745C116.979 21.3922 116.829 21.5393 116.678 21.7159C116.557 21.863 116.452 22.0101 116.361 22.1572C116.18 22.4809 115.969 22.7752 115.728 23.04C115.517 23.2754 115.291 23.5255 115.05 23.7903C114.899 23.9963 114.673 24.1287 114.371 24.1876C114.1 24.2464 113.844 24.2317 113.603 24.1435C113.422 24.0552 113.226 24.011 113.015 24.011C112.593 23.9228 112.352 23.4961 112.291 22.731C112.261 21.9366 112.336 20.9655 112.517 19.8179C112.698 18.6409 112.909 17.4345 113.15 16.1986C113.422 14.9333 113.663 13.7857 113.874 12.7559C113.934 12.4322 113.934 12.1379 113.874 11.8731C113.814 11.6083 113.874 11.3729 114.055 11.1669C114.236 10.9609 114.462 10.8726 114.733 10.9021C115.276 10.9609 115.743 11.108 116.135 11.3435C116.527 11.5789 116.798 12.0055 116.949 12.6235C117.13 13.2414 117.145 14.183 116.994 15.4483C116.964 15.6543 117.04 15.8014 117.22 15.8897C117.432 15.9485 117.597 15.8897 117.718 15.7131C118.653 14.5655 119.557 13.7857 120.431 13.3738C121.306 12.9618 122.12 12.697 122.873 12.5793C123.386 12.4616 123.928 12.5499 124.501 12.8441C124.923 13.0501 125.3 13.3149 125.632 13.6386C125.994 13.9329 126.25 14.2713 126.401 14.6538Z" fill="#3F3250"/>
<path d="M143.116 4.85517C143.266 5.09057 143.281 5.3554 143.161 5.64966C143.07 5.91448 142.874 6.10575 142.573 6.22345C142.211 6.34115 141.789 6.4 141.307 6.4C140.855 6.4 140.342 6.41471 139.769 6.44414C139.438 6.44414 139.121 6.50299 138.82 6.62069C138.518 6.73839 138.247 6.81195 138.005 6.84138C137.433 6.87081 136.98 6.79724 136.649 6.62069C136.317 6.44414 135.91 6.45885 135.428 6.66483C135.307 6.7531 135.156 6.88552 134.976 7.06207C134.825 7.2092 134.674 7.34161 134.523 7.45931C134.131 7.69471 133.875 8.00368 133.755 8.38621C133.604 8.88644 133.709 9.28368 134.071 9.57793C134.312 9.84276 134.554 10.0929 134.795 10.3283C135.066 10.5637 135.307 10.8138 135.518 11.0786C135.699 11.314 135.91 11.4464 136.151 11.4759C136.272 11.4759 136.438 11.5494 136.649 11.6966C137.101 12.0791 137.583 12.4616 138.096 12.8441C138.608 13.2267 139.015 13.6386 139.317 14.08C139.377 14.1389 139.438 14.2271 139.498 14.3448C139.588 14.4331 139.679 14.5067 139.769 14.5655C140.402 15.1246 140.824 15.8749 141.035 16.8166C141.277 17.7582 141.277 18.7145 141.035 19.6855C140.794 20.6271 140.282 21.4363 139.498 22.1131C139.196 22.4074 138.88 22.7163 138.548 23.04C138.217 23.3343 137.81 23.5549 137.327 23.7021C137.297 23.7315 137.237 23.7315 137.146 23.7021C137.056 23.6726 136.98 23.6579 136.92 23.6579C136.317 23.7756 135.729 23.9375 135.156 24.1435C134.584 24.3494 133.92 24.4377 133.167 24.4083C132.835 24.4083 132.503 24.3789 132.172 24.32C131.84 24.2612 131.493 24.2023 131.132 24.1435C130.619 24.114 130.182 23.9228 129.82 23.5697C129.79 23.5108 129.76 23.4814 129.73 23.4814C129.7 23.4814 129.669 23.4667 129.639 23.4372C129.428 23.2901 129.247 23.1283 129.097 22.9517C128.976 22.7752 128.871 22.5839 128.78 22.3779C128.72 22.1425 128.629 21.9218 128.509 21.7159C128.388 21.4805 128.313 21.2303 128.283 20.9655C128.253 20.6713 128.358 20.4653 128.599 20.3476C128.871 20.2299 129.112 20.2446 129.323 20.3917C129.654 20.6566 130.001 20.789 130.363 20.789C131.599 20.9655 132.699 20.9214 133.664 20.6566C134.659 20.3623 135.563 19.9062 136.377 19.2883C136.649 19.0823 136.875 18.788 137.056 18.4055C137.116 18.2878 137.176 18.1995 137.237 18.1407C137.297 18.0524 137.342 17.9641 137.372 17.8759C137.583 17.611 137.719 17.3315 137.779 17.0372C137.93 16.4782 137.794 15.9779 137.372 15.5366C136.8 14.948 136.136 14.4478 135.383 14.0359C134.629 13.6239 133.86 13.1972 133.076 12.7559C132.775 12.5793 132.503 12.3145 132.262 11.9614C132.081 11.726 131.9 11.4906 131.72 11.2552C131.569 10.9903 131.388 10.7255 131.177 10.4607C130.875 10.1664 130.679 9.82805 130.589 9.44552C130.408 8.59219 130.272 7.78299 130.182 7.01793C130.122 6.25287 130.288 5.53195 130.679 4.85517C130.86 4.44322 131.192 4.01655 131.674 3.57517C132.187 3.10437 132.639 2.78069 133.031 2.60414C133.423 2.36874 134.056 2.19218 134.93 2.07448C135.835 1.92736 136.769 1.85379 137.734 1.85379C138.729 1.85379 139.543 1.98621 140.176 2.25103C140.417 2.36873 140.659 2.50115 140.9 2.64828C141.141 2.7954 141.367 2.92782 141.578 3.04552C142.06 3.25149 142.452 3.63402 142.754 4.1931C142.784 4.3108 142.829 4.42851 142.89 4.54621C142.98 4.63448 143.055 4.73747 143.116 4.85517Z" fill="#3F3250"/>
<path d="M158.364 14.6097C158.786 15.2276 158.756 15.8014 158.274 16.331C158.244 16.331 158.214 16.3458 158.184 16.3752C158.184 16.3752 158.168 16.3752 158.138 16.3752C157.897 16.6106 157.731 16.8754 157.641 17.1697C157.4 17.6405 157.038 17.9789 156.556 18.1848C156.073 18.3614 155.546 18.4791 154.973 18.5379C154.4 18.5968 153.857 18.6703 153.345 18.7586C153.013 18.8469 152.712 18.9499 152.44 19.0676C152.169 19.1559 151.883 19.2294 151.581 19.2883C150.857 19.4648 150.255 19.3177 149.772 18.8469C149.652 18.7292 149.531 18.6262 149.41 18.5379C149.29 18.4202 149.169 18.3025 149.049 18.1848C148.868 18.0377 148.672 18.0083 148.461 18.0966C148.25 18.1554 148.144 18.3025 148.144 18.5379C148.084 19.097 148.204 19.6708 148.506 20.2593C148.838 20.8184 149.199 21.2156 149.591 21.451C150.164 21.7159 150.827 21.8336 151.581 21.8041C152.335 21.7747 153.104 21.6717 153.887 21.4952C154.671 21.3186 155.38 21.1715 156.013 21.0538C156.254 20.9949 156.51 21.0097 156.782 21.0979C157.083 21.1862 157.309 21.348 157.46 21.5835C157.49 21.6129 157.52 21.657 157.55 21.7159C157.611 21.7747 157.641 21.8336 157.641 21.8924C157.792 22.1867 157.807 22.4809 157.686 22.7752C157.596 23.0694 157.415 23.2901 157.143 23.4372C157.143 23.4667 157.128 23.4814 157.098 23.4814C157.068 23.4814 157.038 23.5108 157.008 23.5697C156.887 23.6874 156.736 23.7903 156.556 23.8786C156.375 23.9375 156.209 23.9963 156.058 24.0552C155.546 24.1729 155.048 24.2612 154.566 24.32C154.114 24.4083 153.586 24.4818 152.983 24.5407C152.742 24.629 152.501 24.629 152.259 24.5407C151.506 24.423 150.722 24.32 149.908 24.2317C149.094 24.1435 148.34 23.9522 147.647 23.6579C146.983 23.3343 146.456 22.7899 146.064 22.0248C146.034 21.966 145.989 21.9071 145.928 21.8483C145.898 21.7894 145.868 21.7159 145.838 21.6276C145.355 20.9802 145.099 20.171 145.069 19.2C145.039 18.1995 145.175 17.2138 145.476 16.2428C145.778 15.2717 146.154 14.5067 146.607 13.9476C146.938 13.5651 147.315 13.3002 147.737 13.1531C148.159 12.9766 148.611 12.7412 149.094 12.4469C150.089 11.8878 151.189 11.6377 152.395 11.6966C153.601 11.726 154.747 12.0055 155.832 12.5352C156.917 13.0354 157.761 13.7269 158.364 14.6097ZM155.425 14.5214C155.395 14.4331 155.335 14.3743 155.244 14.3448C155.154 14.286 155.063 14.2418 154.973 14.2124C154.521 14.2124 153.978 14.2418 153.345 14.3007C152.742 14.3301 152.395 14.3743 152.305 14.4331C152.244 14.492 152.124 14.5508 151.943 14.6097C151.551 14.7862 151.144 14.9333 150.722 15.051C150.33 15.1393 149.983 15.2864 149.682 15.4924C149.471 15.6101 149.395 15.7867 149.456 16.0221C149.546 16.2575 149.712 16.3899 149.953 16.4193C150.737 16.537 151.551 16.5223 152.395 16.3752C153.239 16.1986 153.993 15.9632 154.656 15.669C154.928 15.4924 155.184 15.2864 155.425 15.051C155.576 14.8451 155.576 14.6685 155.425 14.5214Z" fill="#3F3250"/>
<path d="M177.353 16.331C177.805 17.9494 178.017 19.406 177.986 20.7007C177.986 21.9954 177.821 22.9959 177.489 23.7021C177.187 24.4083 176.765 24.6878 176.223 24.5407C176.072 24.4818 175.816 24.4377 175.454 24.4083C175.092 24.4083 174.76 24.32 174.459 24.1435C174.158 23.9669 173.977 23.6285 173.916 23.1283C173.886 22.7752 173.871 22.4809 173.871 22.2455C173.871 22.0101 173.871 21.6864 173.871 21.2745C173.871 20.8625 173.841 20.2593 173.781 19.4648C173.72 18.4644 173.389 17.6258 172.786 16.949C172.213 16.2722 171.444 15.8897 170.479 15.8014C169.515 15.6837 168.414 16.0221 167.178 16.8166C166.575 17.2285 166.033 17.7876 165.55 18.4938C165.098 19.2 164.706 19.9209 164.374 20.6566C164.043 21.3628 163.771 21.9807 163.56 22.5103C163.38 22.8929 163.168 23.246 162.927 23.5697C162.686 23.8933 162.294 24.0405 161.752 24.011C161.42 24.011 161.028 24.0552 160.576 24.1435C160.154 24.2023 159.958 24.0405 159.988 23.6579C160.108 21.8041 160.319 19.9356 160.621 18.0524C160.922 16.1398 161.224 14.4625 161.525 13.0207C161.586 12.7264 161.721 12.5057 161.932 12.3586C162.174 12.2115 162.415 12.1526 162.656 12.1821C163.349 12.2998 163.877 12.5057 164.239 12.8C164.601 13.0943 164.751 13.8152 164.691 14.9628C164.661 15.1099 164.721 15.2276 164.872 15.3159C165.053 15.3747 165.203 15.3453 165.324 15.2276C166.168 14.4625 167.238 13.8299 168.535 13.3297C169.861 12.8294 171.354 12.7412 173.012 13.0648C173.946 13.2708 174.745 13.5798 175.409 13.9917C176.072 14.3743 176.645 14.9922 177.127 15.8455C177.248 15.9926 177.323 16.1545 177.353 16.331Z" fill="#3F3250"/>
<path d="M192.488 20.3035C192.639 21.0097 192.428 21.554 191.855 21.9366C191.734 22.0543 191.614 22.172 191.493 22.2897C191.403 22.3779 191.327 22.4809 191.267 22.5986C191.116 22.8635 190.92 23.0841 190.679 23.2607C190.468 23.4078 190.242 23.5402 190.001 23.6579C188.885 24.0993 187.755 24.4083 186.609 24.5848C185.494 24.7908 184.333 24.732 183.127 24.4083C182.825 24.32 182.433 24.114 181.951 23.7903C181.469 23.4667 181.077 23.1283 180.775 22.7752C180.715 22.6575 180.609 22.5103 180.459 22.3338C180.338 22.1278 180.218 21.9218 180.097 21.7159C180.037 21.4805 180.082 21.2598 180.233 21.0538C180.383 20.8478 180.609 20.7743 180.911 20.8331C181.333 20.9214 181.71 21.0391 182.042 21.1862C182.373 21.3333 182.69 21.4805 182.991 21.6276C183.353 21.8041 183.715 21.8924 184.077 21.8924C184.981 21.9218 185.855 21.8189 186.699 21.5835C187.574 21.3186 188.222 20.892 188.644 20.3035C188.825 20.0681 188.855 19.8179 188.734 19.5531C188.614 19.2883 188.433 19.1264 188.192 19.0676C187.438 18.9205 186.669 18.8322 185.885 18.8028C185.132 18.7439 184.318 18.5085 183.443 18.0966C182.75 17.714 182.343 17.2285 182.222 16.64C182.192 16.5812 182.162 16.5076 182.132 16.4193C182.102 16.3016 182.057 16.1986 181.996 16.1103C181.876 15.8749 181.8 15.6101 181.77 15.3159C181.74 15.0216 181.77 14.7274 181.861 14.4331C182.011 13.9329 182.222 13.4768 182.494 13.0648C182.795 12.6529 183.097 12.2262 183.398 11.7848C183.73 11.3435 184.137 11.0345 184.619 10.8579C185.222 10.6225 185.84 10.5195 186.473 10.549C187.137 10.5784 187.724 10.5931 188.237 10.5931C188.569 10.5931 188.9 10.652 189.232 10.7697C189.654 10.9168 190.076 11.0639 190.498 11.211C190.92 11.3582 191.297 11.5936 191.629 11.9172C191.84 12.1232 191.975 12.4469 192.036 12.8883C192.126 13.3297 192.096 13.6975 191.945 13.9917C191.825 14.286 191.523 14.3448 191.041 14.1683C190.709 14.0212 190.423 13.8593 190.182 13.6828C189.971 13.4768 189.669 13.3444 189.277 13.2855C188.976 13.2561 188.523 13.2267 187.92 13.1972C187.348 13.1384 186.926 13.1384 186.654 13.1972C186.142 13.2855 185.689 13.5356 185.298 13.9476C185.267 14.0064 185.237 14.1977 185.207 14.5214C185.207 14.8156 185.222 15.1099 185.252 15.4041C185.282 15.6984 185.328 15.8602 185.388 15.8897C185.659 16.0368 186.112 16.1251 186.745 16.1545C187.408 16.1545 187.981 16.1251 188.463 16.0662C188.584 16.0662 188.689 16.1103 188.78 16.1986C188.81 16.3163 188.915 16.3752 189.096 16.3752C189.79 16.4635 190.332 16.7136 190.724 17.1255C191.116 17.5081 191.493 17.9053 191.855 18.3172C192.186 18.6998 192.382 19.1559 192.443 19.6855C192.443 19.8032 192.443 19.9062 192.443 19.9945C192.473 20.0828 192.488 20.1858 192.488 20.3035Z" fill="#3F3250"/>
<path d="M207.705 14.6097C208.127 15.2276 208.096 15.8014 207.614 16.331C207.584 16.331 207.554 16.3458 207.524 16.3752C207.524 16.3752 207.509 16.3752 207.478 16.3752C207.237 16.6106 207.071 16.8754 206.981 17.1697C206.74 17.6405 206.378 17.9789 205.896 18.1848C205.413 18.3614 204.886 18.4791 204.313 18.5379C203.74 18.5968 203.197 18.6703 202.685 18.7586C202.353 18.8469 202.052 18.9499 201.78 19.0676C201.509 19.1559 201.223 19.2294 200.921 19.2883C200.198 19.4648 199.595 19.3177 199.112 18.8469C198.992 18.7292 198.871 18.6262 198.751 18.5379C198.63 18.4202 198.509 18.3025 198.389 18.1848C198.208 18.0377 198.012 18.0083 197.801 18.0966C197.59 18.1554 197.484 18.3025 197.484 18.5379C197.424 19.097 197.545 19.6708 197.846 20.2593C198.178 20.8184 198.539 21.2156 198.931 21.451C199.504 21.7159 200.167 21.8336 200.921 21.8041C201.675 21.7747 202.444 21.6717 203.228 21.4952C204.011 21.3186 204.72 21.1715 205.353 21.0538C205.594 20.9949 205.85 21.0097 206.122 21.0979C206.423 21.1862 206.649 21.348 206.8 21.5835C206.83 21.6129 206.86 21.657 206.891 21.7159C206.951 21.7747 206.981 21.8336 206.981 21.8924C207.132 22.1867 207.147 22.4809 207.026 22.7752C206.936 23.0694 206.755 23.2901 206.484 23.4372C206.484 23.4667 206.468 23.4814 206.438 23.4814C206.408 23.4814 206.378 23.5108 206.348 23.5697C206.227 23.6874 206.077 23.7903 205.896 23.8786C205.715 23.9375 205.549 23.9963 205.398 24.0552C204.886 24.1729 204.388 24.2612 203.906 24.32C203.454 24.4083 202.926 24.4818 202.323 24.5407C202.082 24.629 201.841 24.629 201.6 24.5407C200.846 24.423 200.062 24.32 199.248 24.2317C198.434 24.1435 197.68 23.9522 196.987 23.6579C196.324 23.3343 195.796 22.7899 195.404 22.0248C195.374 21.966 195.329 21.9071 195.268 21.8483C195.238 21.7894 195.208 21.7159 195.178 21.6276C194.696 20.9802 194.439 20.171 194.409 19.2C194.379 18.1995 194.515 17.2138 194.816 16.2428C195.118 15.2717 195.494 14.5067 195.947 13.9476C196.278 13.5651 196.655 13.3002 197.077 13.1531C197.499 12.9766 197.952 12.7412 198.434 12.4469C199.429 11.8878 200.529 11.6377 201.735 11.6966C202.941 11.726 204.087 12.0055 205.172 12.5352C206.257 13.0354 207.102 13.7269 207.705 14.6097ZM204.765 14.5214C204.735 14.4331 204.675 14.3743 204.584 14.3448C204.494 14.286 204.403 14.2418 204.313 14.2124C203.861 14.2124 203.318 14.2418 202.685 14.3007C202.082 14.3301 201.735 14.3743 201.645 14.4331C201.584 14.492 201.464 14.5508 201.283 14.6097C200.891 14.7862 200.484 14.9333 200.062 15.051C199.67 15.1393 199.323 15.2864 199.022 15.4924C198.811 15.6101 198.735 15.7867 198.796 16.0221C198.886 16.2575 199.052 16.3899 199.293 16.4193C200.077 16.537 200.891 16.5223 201.735 16.3752C202.579 16.1986 203.333 15.9632 203.996 15.669C204.268 15.4924 204.524 15.2864 204.765 15.051C204.916 14.8451 204.916 14.6685 204.765 14.5214Z" fill="#3F3250"/>
</svg>
