<svg xmlns="http://www.w3.org/2000/svg" viewBox="0 0 1364 960"><path fill="#656E96" d="M489.432 477.699a.29.29 0 0 0 .219-.257c.097-1.141.233-2.297.406-3.438a.29.29 0 0 0-.573-.087 52.81 52.81 0 0 0-.41 3.476.29.29 0 0 0 .358.306zM491.179 467.369a.29.29 0 0 1-.201-.358 64.846 64.846 0 0 1 2.281-6.682.29.29 0 1 1 .538.216 64.568 64.568 0 0 0-2.261 6.622.29.29 0 0 1-.21.203.272.272 0 0 1-.147-.001zm5.156-13.055a.29.29 0 0 1-.124-.391 81.42 81.42 0 0 1 3.527-6.109.29.29 0 1 1 .489.311 81.131 81.131 0 0 0-3.501 6.065.29.29 0 0 1-.391.124zm73.789-19.539a.29.29 0 0 1 .126-.391c2.091-1.074 3.705-2.668 4.795-4.739a.29.29 0 0 1 .514.271c-1.147 2.178-2.844 3.855-5.043 4.985a.293.293 0 0 1-.392-.126zm-6.525 1.732a23.59 23.59 0 0 1-2.399-.071c-1.585-.124-3.103-.624-4.512-1.486a.29.29 0 0 1-.096-.399.29.29 0 0 1 .399-.096c1.331.814 2.762 1.285 4.255 1.402a23.29 23.29 0 0 0 2.34.069.29.29 0 1 1 .013.581zm155.199-39.09c-2.237.508-4.56.979-6.905 1.399a.291.291 0 0 1-.103-.572c2.336-.419 4.651-.888 6.879-1.394a.29.29 0 0 1 .134.565l-.005.002zm6.472-1.936a.29.29 0 0 1 .2-.358 123.21 123.21 0 0 0 2.676-.787c1.354-.415 2.708-.85 4.025-1.295a.293.293 0 0 1 .368.182.29.29 0 0 1-.182.368c-1.322.446-2.681.883-4.04 1.3-.892.273-1.788.537-2.689.791l-.009.002a.29.29 0 0 1-.349-.203zm-20.336 4.434a198.01 198.01 0 0 1-6.994.833.29.29 0 0 1-.059-.577c2.369-.24 4.715-.519 6.974-.83a.29.29 0 0 1 .11.569l-.031.005zm33.665-8.903a.29.29 0 0 1 .164-.376 134.055 134.055 0 0 0 6.46-2.737.29.29 0 1 1 .24.528 134.211 134.211 0 0 1-6.524 2.761.291.291 0 0 1-.34-.176zm-47.676 10.332a256.4 256.4 0 0 1-7.039.39.29.29 0 0 1-.024-.58c2.381-.1 4.744-.231 7.022-.389a.29.29 0 0 1 .041.579zm60.479-16.135a.29.29 0 0 1 .122-.392 118.54 118.54 0 0 0 6.113-3.439.29.29 0 1 1 .299.497 119.695 119.695 0 0 1-6.143 3.455.289.289 0 0 1-.391-.121zm-74.561 16.734a345.47 345.47 0 0 1-7.044.053.29.29 0 1 1 .002-.58c2.391.006 4.757-.012 7.032-.053a.29.29 0 0 1 .01.58zm86.613-23.968a.29.29 0 0 1 .073-.403c1.937-1.342 3.83-2.75 5.626-4.185a.29.29 0 1 1 .362.454 104.022 104.022 0 0 1-5.658 4.208.29.29 0 0 1-.403-.074zm-259.638 64.448a.29.29 0 0 1-.057-.406 96.424 96.424 0 0 1 4.453-5.475.29.29 0 1 1 .437.383 94.896 94.896 0 0 0-4.426 5.441.292.292 0 0 1-.407.057zm48.087-12.721a17.772 17.772 0 0 1-1.58-4.134 19.296 19.296 0 0 1-.465-2.666.29.29 0 1 1 .577-.06c.09.874.242 1.744.451 2.586a17.29 17.29 0 0 0 1.528 4 .29.29 0 1 1-.511.274zm110.854-27.786a494.542 494.542 0 0 1-7.035-.191.29.29 0 0 1-.28-.3.288.288 0 0 1 .3-.28c2.416.083 4.78.147 7.027.191a.29.29 0 1 1-.012.58zm-85.986 21.357a.29.29 0 0 1-.305-.275 11.937 11.937 0 0 0-.326-2.229 9.018 9.018 0 0 0-.721-1.959 20.013 20.013 0 0 0-1.293-2.166.29.29 0 1 1 .477-.329c.48.697.928 1.447 1.33 2.229.321.622.58 1.324.769 2.085.184.742.3 1.529.343 2.338a.29.29 0 0 1-.274.306zm71.921-21.832a789.22 789.22 0 0 1-7.022-.353.29.29 0 1 1 .032-.58c2.33.127 4.67.246 7.017.353a.29.29 0 1 1-.027.58zm125.759-32.216a.29.29 0 0 1 .015-.41 84.006 84.006 0 0 0 4.935-4.976.29.29 0 0 1 .429.391 83.946 83.946 0 0 1-4.969 5.01.291.291 0 0 1-.41-.015zm-261.404 62.588a.29.29 0 0 1 .002-.41 101.886 101.886 0 0 1 5.183-4.785.289.289 0 0 1 .409.031.289.289 0 0 1-.031.409 101.18 101.18 0 0 0-5.153 4.758.285.285 0 0 1-.134.075.294.294 0 0 1-.276-.078zm121.597-31.13a2409.61 2409.61 0 0 1-7.023-.436.29.29 0 1 1 .037-.579c2.325.147 4.666.294 7.021.436a.29.29 0 1 1-.035.579zm-14.045-.882c-2.363-.149-4.704-.294-7.021-.432a.29.29 0 0 1-.272-.307.29.29 0 0 1 .307-.272c2.318.137 4.66.283 7.024.432a.29.29 0 1 1-.038.579zm-51.404 12.073c-1.875-1.183-4.035-2.017-6.419-2.48a.29.29 0 1 1 .11-.569c2.455.477 4.682 1.338 6.618 2.559a.29.29 0 0 1-.084.527.3.3 0 0 1-.225-.037zm-18.576 4.306a.29.29 0 0 1-.206-.355 19.794 19.794 0 0 1 3.026-6.418.29.29 0 0 1 .473.337 19.226 19.226 0 0 0-2.938 6.23.29.29 0 0 1-.355.206zm-26.939 6.435a.29.29 0 0 1 .06-.406 92.516 92.516 0 0 1 5.818-3.991.288.288 0 0 1 .4.091.29.29 0 0 1-.091.4 92.51 92.51 0 0 0-5.782 3.966.287.287 0 0 1-.405-.06zm82.875-23.638a580.038 580.038 0 0 0-7.025-.323.289.289 0 0 1-.278-.301.288.288 0 0 1 .301-.278c2.196.086 4.496.192 7.032.323a.29.29 0 0 1-.03.579zm-70.998 16.12a.29.29 0 0 1 .125-.391 69.892 69.892 0 0 1 6.425-2.93.29.29 0 1 1 .213.539 69.397 69.397 0 0 0-6.372 2.906.29.29 0 0 1-.391-.124zm20.292-6.07c-2.139.148-4.411.517-6.749 1.098l-.131.033a.29.29 0 0 1-.14-.563l.129-.032c2.373-.589 4.678-.964 6.851-1.114a.29.29 0 1 1 .04.578zm36.654-10.588a275.564 275.564 0 0 0-7.028-.064.29.29 0 1 1-.002-.58c2.211-.009 4.58.012 7.042.065a.29.29 0 0 1 .064.571.369.369 0 0 1-.076.008zm-34.123 6.351a.29.29 0 0 1 .062-.405c1.815-1.332 3.903-2.481 6.204-3.415a.29.29 0 0 1 .218.538c-2.257.915-4.302 2.041-6.078 3.344a.289.289 0 0 1-.406-.062zm20.085-6.216a53.23 53.23 0 0 0-6.925.94.29.29 0 1 1-.118-.568 53.707 53.707 0 0 1 7.001-.951.29.29 0 0 1 .091.571.25.25 0 0 1-.049.008zM784.171 358.849a.283.283 0 0 0 .164-.111c1.323-1.815 1.921-2.88 1.946-2.925a.29.29 0 0 0-.507-.284c-.006.011-.609 1.083-1.909 2.866a.29.29 0 0 0 .064.405.285.285 0 0 0 .242.049z"/><path fill="#46517A" d="m792.361 345.404 14.936-10.969-10.273-3.653z"/><path fill="#656E96" d="m808.08 337.635 13.988-20.86-23.828 18.059zM822.067 316.738l-39.546 10.494 9.558 3.22z"/><path fill="#7882A8" d="m822.068 316.775-23.826 18.162-5.881 10.467-.37-15.056z"/><path fill="#30334D" d="M1249.223 436.977c.185 0 .185.286 0 .286s-.185-.286 0-.286z"/><path fill="#656E96" d="M1185.072 375.114c13.931-10.602 32.101-14.935 49.546-13.471 11.275.946 22.524 4.295 31.712 10.897 9.189 6.602 16.148 16.659 17.739 27.861 1.592 11.202-2.698 23.371-11.787 30.109-9.608 7.123-22.652 7.412-34.484 5.662-14.975-2.214-29.447-7.186-44.445-9.233-6.204-.846-12.758-1.141-18.49 1.38-5.731 2.522-10.284 5.493-12.149 13.84-9.26-35.732 8.427-56.443 22.358-67.045z"/><circle cx="1262.95" cy="399.933" r="5.379" fill="#FFF"/><circle cx="1241.228" cy="399.933" r="5.379" fill="#FFF"/><circle cx="1219.506" cy="399.933" r="5.379" fill="#FFF"/><circle cx="1197.783" cy="399.933" r="5.379" fill="#FFF"/><path fill="#656E96" d="M1210.186 437.21c1.44.323 2.774 1.019 4.155 1.534 1.391.519 2.802.986 4.21 1.454 2.828.941 5.651 1.88 8.537 2.627 5.746 1.487 11.657 2.374 17.597 2.47 10.45.17 20.947-2.175 29.942-7.603 4.875-2.942 9.347-6.853 12.815-11.377.166-.217.535-.023.378.221-2.785 4.337-6.244 7.944-10.395 10.999-4.199 3.091-8.894 5.467-13.819 7.166-11.14 3.844-23.059 3.783-34.478 1.203-3.378-.763-6.75-1.702-10.002-2.9-1.607-.592-3.182-1.278-4.738-1.992-1.602-.735-3.371-1.363-4.783-2.427-.659-.497-.3-1.572.581-1.375zM1155.7 400.412c1.386-5.784 4.013-11.208 7.645-15.915a41.27 41.27 0 0 1 6.198-6.44 41.577 41.577 0 0 1 3.337-2.528c1.161-.786 2.537-1.686 3.884-2.09.321-.096.59.342.334.573-1.001.905-2.24 1.626-3.324 2.437a43.804 43.804 0 0 0-3.444 2.831 42.59 42.59 0 0 0-5.597 6.288 41.31 41.31 0 0 0-6.958 15.415c-.296 1.35-2.399.781-2.075-.571zM1196.71 433.544c.615-.322 1.471-.212 2.146-.149.677.063 1.353.17 2.012.338.638.163 1.259.381 1.856.657.637.294 1.355.613 1.757 1.206.337.496-.101 1.352-.732 1.276-.245-.029-.443-.052-.667-.159-.138-.065-.27-.142-.407-.209a6.967 6.967 0 0 0-.606-.268 14.166 14.166 0 0 0-1.681-.55 11.45 11.45 0 0 0-.838-.178 6.02 6.02 0 0 0-.695-.088c-.285-.024-.57-.038-.856-.04-.346-.003-.73.067-1.058-.06-.366-.142-.647-.395-.696-.808-.043-.37.117-.787.465-.968z"/><path fill="#202A5E" d="M558.3 684.826H151.466a.705.705 0 0 1-.705-.705v-.148c0-.389.316-.705.705-.705H558.3c.389 0 .705.316.705.705v.148c0 .39-.316.705-.705.705zM615.234 684.826h-33.642a.705.705 0 0 1-.705-.705v-.148c0-.389.316-.705.705-.705h33.642c.389 0 .705.316.705.705v.148c0 .39-.316.705-.705.705zM1239.839 657.898H113.948a.737.737 0 0 1-.737-.737v-.155c0-.407.33-.737.737-.737h1125.89c.407 0 .737.33.737.737v.155a.736.736 0 0 1-.736.737zM102.724 657.898H47.017a.737.737 0 0 1-.737-.737v-.155c0-.407.33-.737.737-.737h55.707c.407 0 .737.33.737.737v.155c0 .407-.33.737-.737.737zM1316.983 657.898h-60.905a.737.737 0 0 1-.737-.737v-.155c0-.407.33-.737.737-.737h60.905c.407 0 .737.33.737.737v.155c0 .407-.33.737-.737.737z"/><path fill="#C8CBE3" d="M100.872 400.016h142.396s8.376-5.299-10.57-7.673c-18.946-2.374-13.562-16.022-18.149-13.649-4.587 2.374-8.99 10.234-17.151-.276-11.767-15.153-21.539-26.725-27.721-10.702-6.182 16.022-13.336 12.685-16.553 9.105-5.784-6.435-15.755-10.385-20.941 0-5.185 10.385-13.178-1.645-18.946-2.281-5.385-.593-4.587 14.242-12.963 16.023-8.376 1.78-15.955 0-15.755 3.857.199 3.858 14.558 5.596 16.353 5.596zM539.463 315.191h142.396s8.376-5.299-10.57-7.673c-18.946-2.374-13.562-16.022-18.149-13.649-4.587 2.374-8.99 10.234-17.151-.276-11.767-15.153-21.539-26.725-27.721-10.702-6.182 16.022-13.336 12.685-16.553 9.105-5.784-6.435-15.755-10.385-20.941 0-5.185 10.385-13.178-1.645-18.946-2.281-5.385-.593-4.587 14.242-12.963 16.023-8.376 1.78-15.955 0-15.755 3.857s14.558 5.596 16.353 5.596zM995.463 459.504h142.396s8.376-5.299-10.57-7.673c-18.946-2.374-13.562-16.022-18.149-13.649-4.587 2.374-8.99 10.234-17.151-.276-11.766-15.153-21.539-26.725-27.721-10.702-6.182 16.022-13.336 12.685-16.553 9.105-5.784-6.435-15.755-10.385-20.941 0-5.185 10.385-13.178-1.645-18.946-2.281-5.385-.593-4.587 14.242-12.963 16.023-8.376 1.78-15.955 0-15.755 3.857.199 3.857 14.558 5.596 16.353 5.596z"/><path fill="#FFBA61" d="m398.735 394.843-17.82 47.177a6.703 6.703 0 0 1-4.82 4.179 6.678 6.678 0 0 1-3.829-.273l-69.019-26.071a6.695 6.695 0 0 1-3.416-2.879 6.696 6.696 0 0 1-.491-5.77l17.82-47.177a6.677 6.677 0 0 1 2.71-3.311 6.692 6.692 0 0 1 5.939-.595l69.019 26.071a6.7 6.7 0 0 1 4.063 4.373 6.691 6.691 0 0 1-.156 4.276z"/><path fill="#F5AC4F" d="M399.166 392.316a6.703 6.703 0 0 0-3.381-5.669 6.702 6.702 0 0 1-.366 1.429l-17.82 47.177a6.703 6.703 0 0 1-4.82 4.179 6.678 6.678 0 0 1-3.829-.273l-69.019-26.071a6.739 6.739 0 0 1-.959-.452 6.699 6.699 0 0 0 .858 4.339 6.679 6.679 0 0 0 3.416 2.879l69.019 26.071a6.676 6.676 0 0 0 3.829.273 6.704 6.704 0 0 0 4.82-4.179l17.82-47.177a6.644 6.644 0 0 0 .432-2.526z"/><path fill="#EBA347" d="m350.243 399.852-50.413 17.125c.323.55.724 1.057 1.197 1.499l48.375-16.433 24.708 44.299a6.676 6.676 0 0 0 1.984-.141l-25.851-46.349z"/><path fill="#EBA347" d="m398.735 394.843-3.804 4.379-35.864 9.438c-3.829 1.007-7.811.801-11.515-.599s-6.829-3.877-9.035-7.164l-20.668-30.792-.688-6.075a6.672 6.672 0 0 1 2.71-3.311 6.692 6.692 0 0 1 5.939-.595l69.019 26.071a6.7 6.7 0 0 1 4.063 4.373 6.678 6.678 0 0 1-.157 4.275z"/><path fill="#FFC57A" d="m399.166 392.316-5.932 5.412-34.57 9.294a17.14 17.14 0 0 1-18.764-7.088l-19.792-29.828-.969-8.86c.232-.192.476-.369.73-.528a6.692 6.692 0 0 1 5.939-.595l69.019 26.071a6.7 6.7 0 0 1 4.063 4.373 6.64 6.64 0 0 1 .276 1.749z"/><path fill="#FFD59E" d="M311.053 398.531a407.95 407.95 0 0 1 5.393-14.69c.665-1.714 1.762-3.697 1.668-5.566-.026-.523-.792-.639-1.068-.267-1.337 1.225-1.995 3.427-2.685 5.045a201.015 201.015 0 0 0-2.476 6.072 224.335 224.335 0 0 0-3.271 8.936c-.342.993-.702 1.663-.091 2.601.228.35.716.377 1.066.253 1.029-.363 1.145-1.456 1.464-2.384zM309.003 404.544a1.422 1.422 0 0 0-.545-.881 1.38 1.38 0 0 0-1.376-.142l-.063.036-.295.182c-.147.11-.257.248-.328.414a.675.675 0 0 0-.127.337 1.015 1.015 0 0 0-.028.528c.049.228.144.439.283.626.11.147.248.257.414.328.154.101.325.157.514.168l.07.004c.467.026.969-.154 1.238-.559.202-.31.306-.669.243-1.041z"/><path fill="#FFBA61" d="m943.554 323.582 20.675 45.998a6.702 6.702 0 0 1-.465 6.362 6.67 6.67 0 0 1-2.905 2.509l-67.294 30.247a6.699 6.699 0 0 1-4.451.371 6.696 6.696 0 0 1-4.421-3.741l-20.675-45.998a6.676 6.676 0 0 1-.418-4.258 6.696 6.696 0 0 1 3.787-4.614l67.294-30.247a6.698 6.698 0 0 1 5.965.231 6.673 6.673 0 0 1 2.908 3.14z"/><path fill="#F5AC4F" d="M942.076 321.487a6.613 6.613 0 0 0-1.43-1.044 6.703 6.703 0 0 0-4.966-.586c.29.387.543.811.75 1.271l20.675 45.998a6.702 6.702 0 0 1-.465 6.362 6.67 6.67 0 0 1-2.905 2.509l-67.294 30.247a6.883 6.883 0 0 1-.998.357 6.706 6.706 0 0 0 8.121 2.097l67.294-30.247a6.7 6.7 0 0 0 2.905-2.509 6.704 6.704 0 0 0 .465-6.363l-20.675-45.998a6.66 6.66 0 0 0-1.477-2.094z"/><path fill="#EBA347" d="m912.739 361.357-23.625 47.713a6.65 6.65 0 0 0 1.905.217l22.669-45.785 48.77 13.941a6.67 6.67 0 0 0 1.306-1.5l-51.025-14.586z"/><path fill="#EBA347" d="m943.554 323.582.396 5.787-18.744 31.999a18.845 18.845 0 0 1-8.58 7.704 18.84 18.84 0 0 1-11.457 1.302l-36.375-7.225-4.776-3.818a6.662 6.662 0 0 1-.417-4.258 6.696 6.696 0 0 1 3.787-4.614l67.294-30.247a6.698 6.698 0 0 1 5.965.231 6.67 6.67 0 0 1 2.907 3.139z"/><path fill="#FFC57A" d="m942.076 321.487-.382 8.021-17.929 30.984a17.143 17.143 0 0 1-18.295 8.223l-35.074-7.16-6.939-5.592a6.696 6.696 0 0 1 3.931-5.503l67.294-30.247a6.698 6.698 0 0 1 5.965.231c.517.281.999.629 1.429 1.043z"/><path fill="#FFD59E" d="M884.045 388.082a389.705 389.705 0 0 1-3.959-8.421 483.943 483.943 0 0 1-2.588-5.792c-.739-1.683-1.362-3.863-2.747-5.12-.388-.352-1.012.106-.945.565-.082 1.811 1.006 3.835 1.659 5.469a218.786 218.786 0 0 0 6.522 14.688c.459.945.676 1.674 1.772 1.907.409.087.774-.238.934-.574.47-.983-.219-1.839-.648-2.722zM886.836 393.789a1.42 1.42 0 0 0-1.008-.239c-.249.04-.471.14-.667.3a1.362 1.362 0 0 0-.408.571l-.02.07-.081.337a.998.998 0 0 0 .06.525c.02.123.069.232.148.328.081.161.199.292.353.393.195.127.412.209.642.244a.998.998 0 0 0 .525-.06c.181-.037.341-.118.482-.243l.052-.047c.349-.311.578-.793.482-1.269-.072-.364-.253-.691-.56-.91z"/><path fill="#656E96" d="M108.269 505.945h113.09v37.098h-37.943V656.18h-37.204V543.043h-37.943v-37.098zM238.36 505.945h37.204v52.572h40.653v-52.572h37.369V656.18h-37.369v-60.77h-40.653v60.77H238.36V505.945zM452.327 631.381h-42.238l-5.868 24.799h-37.987l45.253-150.235h40.582l45.242 150.235H458.35l-6.023-24.799zm-7.718-32.487-13.29-54.007-13.151 54.007h26.441zM509.382 505.945h34.74l45.335 83.117v-83.117h35.069V656.18h-35.069l-45.088-82.489v82.489h-34.987V505.945zM649.41 505.945h37.204v56.774l38.971-56.774h49.481l-43.936 56.707 45.906 93.528h-45.815l-25.385-61.784-19.222 25.123v36.661H649.41V505.945zM833.295 505.945h41.326l24.258 50.682 24.307-50.682h41.104l-46.813 87.313v62.922h-37.286v-62.922l-46.896-87.313zM961.498 581.165c0-24.526 5.474-43.621 16.426-57.285 10.95-13.664 26.199-20.496 45.745-20.496 20.039 0 35.479 6.712 46.32 20.136 10.841 13.426 16.261 32.231 16.261 56.416 0 17.559-2.369 31.957-7.104 43.195-4.737 11.238-11.58 19.983-20.532 26.234-8.952 6.252-20.108 9.377-33.467 9.377-13.58 0-24.817-2.697-33.714-8.096-8.898-5.396-16.111-13.937-21.641-25.619-5.53-11.684-8.294-26.302-8.294-43.862zm37.204.205c0 15.167 2.258 26.065 6.776 32.691 4.517 6.628 10.663 9.941 18.438 9.941 7.993 0 14.18-3.245 18.561-9.735 4.38-6.491 6.57-18.14 6.57-34.945 0-14.142-2.287-24.476-6.858-31-4.572-6.524-10.773-9.786-18.602-9.786-7.502 0-13.524 3.315-18.068 9.939-4.546 6.626-6.817 17.592-6.817 32.895zM1184.639 505.945h37.122v89.507c0 8.876-1.109 17.257-3.326 25.142-2.218 7.886-5.695 14.783-10.43 20.688-4.737 5.905-9.706 10.053-14.907 12.441-7.227 3.345-15.906 5.018-26.034 5.018-5.859 0-12.251-.513-19.177-1.535-6.927-1.027-12.717-3.055-17.37-6.095-4.654-3.038-8.911-7.356-12.771-12.954-3.86-5.598-6.503-11.368-7.925-17.308-2.3-9.558-3.449-18.023-3.449-25.398v-89.507h37.122v91.639c0 8.192 1.82 14.592 5.461 19.198 3.641 4.609 8.691 6.912 15.152 6.912 6.406 0 11.429-2.269 15.071-6.808 3.641-4.541 5.461-10.973 5.461-19.302v-91.638z"/><path fill="#C8CBE3" d="m478.205 392.139-2.884-14.734a.616.616 0 0 0-.474-.484l-14.672-3.187c-.655-.142-.645-1.08.012-1.208l14.734-2.884a.616.616 0 0 0 .484-.474l3.187-14.672c.142-.655 1.08-.645 1.208.012l2.884 14.734a.615.615 0 0 0 .475.484l14.672 3.187c.655.142.645 1.08-.012 1.208l-14.734 2.884a.616.616 0 0 0-.484.474l-3.187 14.672c-.143.656-1.081.646-1.209-.012zM1085.453 392.139l-2.885-14.734a.616.616 0 0 0-.474-.484l-14.672-3.187c-.655-.142-.645-1.08.012-1.208l14.734-2.884a.616.616 0 0 0 .484-.474l3.187-14.672c.142-.655 1.08-.645 1.208.012l2.884 14.734a.615.615 0 0 0 .475.484l14.672 3.187c.655.142.645 1.08-.012 1.208l-14.734 2.884a.616.616 0 0 0-.484.474l-3.187 14.672c-.142.656-1.08.646-1.208-.012zM754.597 469.656l-2.014-10.287a.43.43 0 0 0-.331-.338l-10.243-2.225c-.457-.099-.451-.754.009-.844l10.287-2.014a.43.43 0 0 0 .338-.331l2.225-10.243c.099-.457.754-.45.844.009l2.014 10.287a.43.43 0 0 0 .331.338l10.243 2.225c.457.099.451.754-.009.844l-10.287 2.014a.43.43 0 0 0-.338.331l-2.225 10.243c-.1.457-.754.45-.844-.009zM164.257 469.656l-2.014-10.287a.43.43 0 0 0-.331-.338l-10.243-2.225c-.457-.099-.45-.754.009-.844l10.287-2.014a.43.43 0 0 0 .338-.331l2.225-10.243c.099-.457.754-.45.844.009l2.014 10.287a.43.43 0 0 0 .331.338l10.243 2.225c.457.099.45.754-.009.844l-10.287 2.014a.43.43 0 0 0-.338.331l-2.225 10.243c-.1.457-.754.45-.844-.009z"/><circle cx="926.439" cy="464.754" r="5.25" fill="#29ABE2"/><circle cx="376.094" cy="315.191" r="5.25" fill="#29ABE2"/><circle cx="680.872" cy="363.744" r="5.25" fill="#FFBC47"/><circle cx="404.419" cy="470.004" r="5.25" fill="#FFBC47"/><circle cx="1144.953" cy="309.941" r="5.25" fill="#FFBC47"/><circle cx="119.066" cy="439.463" r="5.25" fill="#FFBC47"/></svg>